<svg id="Layer_1" data-name="Layer 1" xmlns="http://www.w3.org/2000/svg" viewBox="0 0 200 200"><defs><style>.cls-1{fill:#010201;}.cls-2{fill:#010101;}.cls-3{fill:#616161;}.cls-4{fill:#84c37b;}.cls-5{fill:#5d5e5e;}.cls-6{fill:#4f4f50;}</style></defs><path class="cls-1" d="M63.21,168.26c0-11.19,0-22.38,0-33.57a3.93,3.93,0,0,0-1.87-3.83c-2.7-1.8-3.31-4.51-2.34-7.58a6.39,6.39,0,0,1,.81-2.14c4-4.88,3.47-10.68,3.38-16.4-.05-3.11,0-6.21,0-9.31,0-2.81.36-5.45-2.83-7.39-2.08-1.26-2.29-4.19-1.44-6.69a12.35,12.35,0,0,1,1.64-3.59c2.51-3.28,2.85-7,2.68-10.92a8.44,8.44,0,0,0-1.88-5.37,11.74,11.74,0,0,1-2.23-11.23c2.27-7.18,6.69-13.1,11.21-19,1.28-1.65,2.92-1.71,4.18-.09,4.61,5.92,9.16,11.88,11.27,19.27a3.66,3.66,0,0,1,.78,2c.07.75,0,1.5.06,2.25s0,1.55-.06,2.33a5.75,5.75,0,0,1-1.16,3.42c-2.71,3.13-2.71,6.82-2.67,10.64q.14,13.64,0,27.26a16.79,16.79,0,0,0,2.31,8.85c3.27,5.71,3.06,8.06-1.06,13.17-1.25,1.56-1.2,3.28-1.21,5q0,18.28,0,36.56c0,1.33,0,2.66-.09,4-.21,2.62-1.46,4-4.26,3.93-4-.11-8-.07-11.92,0C65.06,169.94,63.89,169.65,63.21,168.26Z"/><path class="cls-2" d="M138,108.61c1,3.26,3.69,5.73,3.54,9.64-.12,3.07-1,5.16-3.49,6.68-.58,1.16-.29,2.4-.29,3.59,0,12,0,24.1,0,36.14,0,1.19.31,2.44-.3,3.58h0c-.37,1.43-1.34,1.71-2.71,1.69-4.51-.08-9,0-13.52,0-2.78-.29-3.2-2.34-3.24-4.56-.11-5.53-.08-11.06,0-16.58a8.05,8.05,0,0,0-2.32-6.27,7.46,7.46,0,0,1-1.06-9.79c4.35-6.45,3.21-13.53,3.34-20.53a5.55,5.55,0,0,0-1.78-4.1c-3.16-3.31-3.92-6.32-1.52-10.21,3.08-5,3.63-10.28,3.34-15.88-.15-2.87,0-5.75,0-8.62,0-4.73.64-9.57-3-13.51A4.67,4.67,0,0,1,114,57c-.06-.73-.06-1.46-.05-2.19a16.4,16.4,0,0,1,.16-3.64c2.54-7,6.65-13.09,11-19,2.09-2.8,3.47-2.82,5.66-.14a89,89,0,0,1,10.47,16.67,38.69,38.69,0,0,0,.1,4.94c.54,3.8-1,6.77-3.37,9.5a1.11,1.11,0,0,0-.14.29C137.66,78.5,137.51,93.55,138,108.61Z"/><path class="cls-1" d="M114.15,51.19c1.2.93.58,2.24.72,3.4-.86.81-.58,1.9-.68,2.9a6.59,6.59,0,0,1-1.34,3.69c-3.45,4.92-3,9.92-.41,15a27.81,27.81,0,0,1,2.25,5.16,7.12,7.12,0,0,1-2,7.6,7,7,0,0,0-2.16,5.67c.07,2.32.11,4.65,0,7a18.42,18.42,0,0,0,2.58,10.75c3,5.18,2.63,8-1.23,12.6-1.29,1.53-1.32,3.22-1.32,5q0,16.77,0,33.53a21.15,21.15,0,0,1-.21,4c-.22,1.19-.81,2.23-2.06,2.27-5.69.22-11.41.79-17.08-.35-.19,0-.34-.26-.5-.41-.93-1.64-.69-3.44-.69-5.2q0-27.85,0-55.71c0-3-.4-5.5-2.64-7.84a7.49,7.49,0,0,1-.67-9.58c5.15-7.86,2.77-16.5,3.16-24.85a5.63,5.63,0,0,0-1.35-3.33A10.1,10.1,0,0,1,86.45,58c-.24-1.14.42-2.47-.72-3.43l0-2c.67-.54.72-1.43,1.17-2.09C89.09,43,93.72,37.13,98.24,31.19c1.52-2,3.27-1.23,4.62.54C107.42,37.75,111.68,43.94,114.15,51.19Z"/><path class="cls-3" d="M86.93,50.4c.16,1,.32,2-1.17,2.09,0-.67,0-1.35,0-2Z"/><path class="cls-4" d="M65.31,120.85c2,1.63,1.66,5.06,5.13,4.41,1.5-.28,2.34-.38,1.49-2.12-.43-.89-.46-2-1.06-2.75-3.33-3.89-3.14-8.5-3.05-13.18.11-6,0-12,0-17.94,0-1.23,0-2.4-1.24-3.18-4.19-2.56-4.2-2.77-1.06-6.89,1.1.87,1.39,2.23,2,3.36,1,1.79,2.79,1.36,4.09.86,1.5-.58.23-1.89.09-2.88a.68.68,0,0,0-.11-.31c-3.73-5.09-4.41-10.88-3.82-17a3.7,3.7,0,0,0-1.22-2.93c-4.39-5-4.46-8.3-.3-14.29C69,48.21,69.59,51.19,70,54.28c.12,1.09,0,2.22.12,3.31.16,1.25.57,2.37,2.16,2.47a2.27,2.27,0,0,0,2.63-2.3A14.38,14.38,0,0,1,78,49.89c1.54-1.88,2.39-1.37,3.09.64A8.11,8.11,0,0,1,79,59.63a5.8,5.8,0,0,0-1.86,4.69c.09,7.75,0,15.5.06,23.25,0,1.88-.06,3.34-2.55,2.9-1.76-.31-2.3.57-2.27,2.26s.38,2.64,2.22,2.34c2.4-.4,2.4,1,2.66,2.88.6,4.41-1.44,7.83-3.33,11.44-.64,1.21-2.53,3.09-.38,4.19s4,.15,4.72-2.48a8,8,0,0,1,1-1.78c1.3.78,1.52,2.12,2,3.26.74,1.62.45,2.87-1.46,3.22-2.41.43-2.73,2-2.72,4.11.07,13.73,0,27.46.1,41.19,0,3-.6,4-3.75,3.9-6.66-.29-5.51.3-5.61-5.8,0-1,.07-2,0-3-.17-1.88.33-3.05,2.5-2.79,1.79.21,2.25-.74,2.25-2.37s-.3-2.86-2.35-2.62c-1.58.18-2.43-.32-2.43-2.17s1-2.25,2.49-2.11c1.74.15,2.28-.72,2.29-2.38S72,139,70.13,139.19c-2.08.25-2.4-.89-2.3-2.59.09-1.54,0-3.1,0-4.65.09-2.24.07-4.18-3-4.48-1.32-.13-1.94-1.45-1.39-2.85C64,123.41,64.63,122.26,65.31,120.85Z"/><path class="cls-4" d="M73.5,47.59c-1.19-1.69-2.4-3.37-3.57-5.08-1.79-2.6.74-4,1.95-5.22,1.55-1.53,1.66,1.2,2.64,1.73.09,0,.12.18.19.27C77.82,43.81,77.82,43.81,73.5,47.59Z"/><path class="cls-5" d="M86.94,56.7l-1.14-.07c0-.7,0-1.4-.07-2.1C88.25,54.07,86.71,55.89,86.94,56.7Z"/><path class="cls-4" d="M121.73,45.81c2.68,2.2,3.51,5,3.8,8,.1,1.1,0,2.22.07,3.32.11,1.54.57,2.9,2.43,3s2.56-1.21,2.62-2.77A12.24,12.24,0,0,1,134,49.6c1.3-1.49,2.12-1.19,2.67.59,1.1,3.54.81,6.85-2,9.46a6.12,6.12,0,0,0-1.92,5c.08,5.43,0,10.85.06,16.28,0,1.75-.23,2.8-2.3,2.49-1.61-.24-2.4.36-2.36,2.2s.26,2.83,2.32,2.57,2.37.86,2.34,2.61c-.08,5.32,0,10.63,0,16,0,3.18-2.78,5.18-3.54,8-.3,1.14-2,2.68-.33,3.33,1.35.54,3.82,1.3,4.61-1.5.26-1,.72-2.37,1.66-2.19,1.44.27,1.45,2,1.9,3.21s.32,2.53-1,2.68c-3.81.44-3.32,3.12-3.31,5.66,0,12-.06,23.93.05,35.89,0,2.32-.64,3.32-3,3a23.42,23.42,0,0,0-2.65,0,4,4,0,0,1-3.44-6.07c.53-1,1.5-.81,2.33-.77,1.86.11,2.17-.92,2.17-2.49s-.32-2.72-2.16-2.48c-2.23.3-2.58-.84-2.45-2.72s0-3.76,0-5.65c0-2.69.33-5.45-3.55-5.89a1.67,1.67,0,0,1-1-2.44c.56-1.29.81-2.78,2.07-3.7,1.23.67,1.35,2,1.9,3,1,2,2.9,1.61,4.34,1.09s.45-2.21,0-2.81c-5.31-7-3.45-15.19-3.74-23-.1-2.92,1-6.42-3.66-7.1-.94-.14-1.36-1.43-.83-2.52s.62-2.74,1.94-3.33c.68-.31.92.66,1.25,1.2.49.84.54,2.1,1.58,2.41,1.26.38,2.86.71,3.81-.17.79-.74,0-2.26-.58-3-4.56-5.77-3.41-12.52-3.53-19.07,0-2,.24-3.32,2.66-2.93,1.74.28,2-.78,1.94-2.2s0-2.73-2-2.47-2.67-.8-2.56-2.75c.24-4.09,0-7.73-3.21-11.24C116.91,54,119.74,49.82,121.73,45.81Z"/><path class="cls-4" d="M129.33,47.32c-.64,0-.9-.45-1.19-.94a35.31,35.31,0,0,0-1.88-3.06A4.41,4.41,0,0,1,127.51,37a1.3,1.3,0,0,1,.54-.24c.65,0,4.8,5.47,4.72,6.48-.16,2-2,2.71-3.13,4C129.58,47.3,129.44,47.29,129.33,47.32Z"/><path class="cls-6" d="M114.79,56.69l-1.17,0c-.18-1-.27-2,1.25-2C114.84,55.29,114.82,56,114.79,56.69Z"/><path class="cls-4" d="M93.3,90.65a6.57,6.57,0,0,1,1.75,2.9c.79,2.29,2.79,1.72,4.18,1.36,1.92-.51.73-2.33.23-3-5.7-7.44-3.48-16.08-3.79-24.3-.13-3.41-.11-6.41-2.83-9.35-3.66-4-1.14-8.25,1.1-12.33,2.76,2,3.35,4.88,3.76,7.83.19,1.31.09,2.65.22,4a2.2,2.2,0,0,0,2.3,2.3,2.16,2.16,0,0,0,2.42-2.13c.42-2.88,1.12-5.63,3.08-7.92,1.55-1.81,2.5-1.75,3.23.67,1,3.39.52,6.47-2,8.86a5.38,5.38,0,0,0-2,4.93,22.2,22.2,0,0,1-3.7,15.67c-.54.81-1.92,2.62,0,3.34,1.5.54,3.57.9,4.31-1.6.3-1,.64-2.61,1.77-2.37,1.32.29,1.41,2.09,1.91,3.3s0,2.55-1.16,2.67c-3.7.37-3.17,3-3.16,5.37,0,2.21-.09,4.43,0,6.64.28,6.12.24,12.1-3.59,17.4-.56.77-2.06,2.59-.2,3.27,1.44.53,3.84,1.18,4.49-1.71a3.71,3.71,0,0,1,1.62-2.34c2.91,4.12,2.9,4.26-1.29,7-1.15.74-1,1.84-1,2.93,0,5.76-.06,11.53,0,17.29,0,1.76-.33,2.76-2.33,2.5-1.66-.21-2.37.48-2.35,2.26s.36,2.91,2.34,2.67,2.4.67,2.34,2.46q-.17,5.49,0,11c.06,1.91-.39,2.81-2.54,2.78-8.44-.15-6.69.65-6.79-6.55-.1-7.75,0-15.51-.06-23.26,0-2,.36-3.21,2.68-2.83,1.86.3,2.18-.8,2.2-2.37s-.57-2.51-2.32-2.25c-2.14.32-2.57-.78-2.55-2.7.07-8.09,0-16.17,0-24.26,0-1.21.14-2.34-1.29-3.08-3.9-2-4-2.43-1.66-6.24A7.46,7.46,0,0,1,93.3,90.65Z"/><path class="cls-4" d="M100.38,36.68a6.1,6.1,0,0,1,1.05.93c.78,1.06,1.49,2.18,2.22,3.28,1.64,2.51.91,5.17-1.72,6.33-.1,0-.24.16-.29.13-2.11-1.44-2.87-3.93-4.44-5.79C96.74,41,99.41,36.81,100.38,36.68Z"/></svg>