<svg height="512" viewBox="0 0 64 64" width="512" xmlns="http://www.w3.org/2000/svg"><g id="Filled_outline" data-name="Filled outline"><path d="m37 25c0-1.105-2-4-2-4v-5h-.027a4.98 4.98 0 0 0 2.027-4c0-2.761-5-9-5-9s-5 6.239-5 9a4.98 4.98 0 0 0 2.027 4h-.027v10s-2 2.895-2 4a2 2 0 0 0 2 2v29h6v-19a2 2 0 0 0 2-2c0-1.1-2-4-2-4v-9a2 2 0 0 0 2-2z" fill="#8ec13f"/><path d="m39 33c0-1.105 2-4 2-4v-13h.027a4.98 4.98 0 0 1 -2.027-4c0-2.761 5-9 5-9s5 6.239 5 9a4.98 4.98 0 0 1 -2.027 4h.027v20s2 2.9 2 4a2 2 0 0 1 -2 2v19h-6v-11a2 2 0 0 1 -2-2c0-1.1 2-4 2-4v-9a2 2 0 0 1 -2-2z" fill="#8ec13f"/><path d="m15 25c0-1.105 2-4 2-4v-5h.027a4.98 4.98 0 0 1 -2.027-4c0-2.761 5-9 5-9s5 6.239 5 9a4.98 4.98 0 0 1 -2.027 4h.027v18s2 2.9 2 4a2 2 0 0 1 -2 2v21h-6v-16a2 2 0 0 1 -2-2c0-1.1 2-4 2-4v-12a2 2 0 0 1 -2-2z" fill="#8ec13f"/><path d="m34 40h-2c0-1.278 1.522-3.62 2.177-4.568a1.038 1.038 0 0 1 1.646 0c.655.948 2.177 3.29 2.177 4.568h-2a7.443 7.443 0 0 0 -1-2.146 7.457 7.457 0 0 0 -1 2.146z" fill="#c8d952"/><path d="m28 30h-2c0-1.278 1.522-3.62 2.177-4.568a1.038 1.038 0 0 1 1.646 0c.655.948 2.177 3.29 2.177 4.568h-2a7.443 7.443 0 0 0 -1-2.146 7.457 7.457 0 0 0 -1 2.146z" fill="#c8d952"/><path d="m34 25h-2c0-1.278 1.522-3.62 2.177-4.568a1.038 1.038 0 0 1 1.646 0c.655.948 2.177 3.29 2.177 4.568h-2a7.443 7.443 0 0 0 -1-2.146 7.457 7.457 0 0 0 -1 2.146z" fill="#c8d952"/><path d="m42 48a7.433 7.433 0 0 0 -1-2.147 7.457 7.457 0 0 0 -1 2.147h-2c0-1.278 1.522-3.62 2.177-4.568a1.038 1.038 0 0 1 1.646 0c.655.948 2.177 3.29 2.177 4.568z" fill="#c8d952"/><path d="m48 40a7.433 7.433 0 0 0 -1-2.147 7.457 7.457 0 0 0 -1 2.147h-2c0-1.278 1.522-3.62 2.177-4.568a1.038 1.038 0 0 1 1.646 0c.655.948 2.177 3.29 2.177 4.568z" fill="#c8d952"/><path d="m42 33a7.433 7.433 0 0 0 -1-2.147 7.457 7.457 0 0 0 -1 2.147h-2c0-1.278 1.522-3.62 2.177-4.568a1.038 1.038 0 0 1 1.646 0c.655.948 2.177 3.29 2.177 4.568z" fill="#c8d952"/><path d="m18 43a7.433 7.433 0 0 0 -1-2.147 7.457 7.457 0 0 0 -1 2.147h-2c0-1.278 1.522-3.62 2.177-4.568a1.038 1.038 0 0 1 1.646 0c.655.948 2.177 3.29 2.177 4.568z" fill="#c8d952"/><path d="m24 38a7.433 7.433 0 0 0 -1-2.147 7.457 7.457 0 0 0 -1 2.147h-2c0-1.278 1.522-3.62 2.177-4.568a1.038 1.038 0 0 1 1.646 0c.655.948 2.177 3.29 2.177 4.568z" fill="#c8d952"/><path d="m18 25a7.433 7.433 0 0 0 -1-2.147 7.457 7.457 0 0 0 -1 2.147h-2c0-1.278 1.522-3.62 2.177-4.568a1.038 1.038 0 0 1 1.646 0c.655.948 2.177 3.29 2.177 4.568z" fill="#c8d952"/><g fill="#739635"><path d="m17 49h3v2h-3z"/><path d="m17 53h3v2h-3z"/><path d="m20 28h3v2h-3z"/><path d="m29 44h3v2h-3z"/><path d="m32 51h3v2h-3z"/><path d="m41 55h3v2h-3z"/><path d="m44 25h3v2h-3z"/><path d="m41 20h3v2h-3z"/><path d="m32 15a1 1 0 0 1 -1-1v-1a6.48 6.48 0 0 0 -2.555-5.168l1.11-1.664a8.458 8.458 0 0 1 2.845 3.663 9.681 9.681 0 0 1 3.157-2.726l.894 1.79-.451-.895.45.893c-.034.017-3.45 1.791-3.45 5.107a1 1 0 0 1 -1 1z"/><path d="m20 15a1 1 0 0 1 -1-1v-1a6.48 6.48 0 0 0 -2.555-5.168l1.11-1.664a8.458 8.458 0 0 1 2.845 3.663 9.681 9.681 0 0 1 3.157-2.726l.894 1.79-.451-.895.45.893c-.034.017-3.45 1.791-3.45 5.107a1 1 0 0 1 -1 1z"/><path d="m44 15a1 1 0 0 1 -1-1v-1a6.48 6.48 0 0 0 -2.555-5.168l1.11-1.664a8.458 8.458 0 0 1 2.845 3.663 9.681 9.681 0 0 1 3.157-2.726l.894 1.79-.451-.895.45.893c-.034.017-3.45 1.791-3.45 5.107a1 1 0 0 1 -1 1z"/></g><path d="m31.22 2.375c-.534.666-5.22 6.6-5.22 9.625a5.92 5.92 0 0 0 2 4.451v9.24c-.717 1.065-2 3.135-2 4.309a3.006 3.006 0 0 0 2 2.829v28.171a1 1 0 0 0 1 1h6a1 1 0 0 0 1-1v-18.171a3.006 3.006 0 0 0 2-2.829c0-1.174-1.283-3.244-2-4.309v-7.862a3.006 3.006 0 0 0 2-2.829c0-1.174-1.283-3.244-2-4.309v-4.24a5.92 5.92 0 0 0 2-4.451c0-3.025-4.686-8.959-5.22-9.625a1.032 1.032 0 0 0 -1.56 0zm.78 2.26c.745.994 1.555 2.17 2.256 3.316a9.308 9.308 0 0 0 -1.86 1.88 8.586 8.586 0 0 0 -1.982-2.931c.523-.8 1.07-1.576 1.586-2.265zm2.375 10.565a.986.986 0 0 0 -.375.97v4.526c-.715 1.061-2 3.128-2 4.306h2a7.5 7.5 0 0 1 1-2.144 7.487 7.487 0 0 1 1 2.142 1 1 0 0 1 -1 1 1 1 0 0 0 -1 1v8.694c-.715 1.061-2 3.128-2 4.306h2a7.485 7.485 0 0 1 1-2.143 7.484 7.484 0 0 1 1 2.143 1 1 0 0 1 -1 1 1 1 0 0 0 -1 1v9h-2v2h2v7h-4v-14h2v-2h-2v-12a1 1 0 0 0 -1-1 1 1 0 0 1 -1-1 7.485 7.485 0 0 1 1-2.143 7.484 7.484 0 0 1 1 2.143h2c0-1.178-1.285-3.245-2-4.306v-9.462a1 1 0 0 0 -.375-1.034 3.96 3.96 0 0 1 -1.625-3.198 8.454 8.454 0 0 1 1.328-3.356 6.448 6.448 0 0 1 1.672 4.356v1a1 1 0 0 0 2 0 5.669 5.669 0 0 1 2.249-4.278 5.95 5.95 0 0 1 .751 2.278 3.96 3.96 0 0 1 -1.625 3.2z"/><path d="m48 16.451a5.92 5.92 0 0 0 2-4.451c0-3.025-4.686-8.959-5.22-9.625a1.032 1.032 0 0 0 -1.56 0c-.534.666-5.22 6.6-5.22 9.625a5.92 5.92 0 0 0 2 4.451v12.24c-.717 1.065-2 3.135-2 4.309a3.006 3.006 0 0 0 2 2.829v7.862c-.717 1.065-2 3.135-2 4.309a3.006 3.006 0 0 0 2 2.829v10.171a1 1 0 0 0 1 1h6a1 1 0 0 0 1-1v-18.171a3.006 3.006 0 0 0 2-2.829c0-1.174-1.283-3.244-2-4.309zm-4-11.816c.745.994 1.555 2.17 2.256 3.316a9.308 9.308 0 0 0 -1.86 1.88 8.586 8.586 0 0 0 -1.982-2.931c.523-.8 1.07-1.576 1.586-2.265zm3 36.365a1 1 0 0 0 -1 1v18h-4v-3h2v-2h-2v-5a1 1 0 0 0 -1-1 1 1 0 0 1 -1-1 7.485 7.485 0 0 1 1-2.143 7.485 7.485 0 0 1 1 2.143h2c0-1.178-1.285-3.245-2-4.306v-8.694a1 1 0 0 0 -1-1 1 1 0 0 1 -1-1 7.473 7.473 0 0 1 1-2.143 7.485 7.485 0 0 1 1 2.143h2c0-1.178-1.285-3.245-2-4.306v-6.694h2v-2h-2v-3.768a1 1 0 0 0 -.375-1.034 3.96 3.96 0 0 1 -1.625-3.198 8.454 8.454 0 0 1 1.328-3.356 6.448 6.448 0 0 1 1.672 4.356v1a1 1 0 0 0 2 0 5.669 5.669 0 0 1 2.249-4.278 5.95 5.95 0 0 1 .751 2.278 3.96 3.96 0 0 1 -1.625 3.2.986.986 0 0 0 -.375.97v8.83h-2v2h2v8.694c-.715 1.061-2 3.128-2 4.306h2a7.485 7.485 0 0 1 1-2.143 7.484 7.484 0 0 1 1 2.143 1 1 0 0 1 -1 1z"/><path d="m19.22 2.375c-.534.666-5.22 6.6-5.22 9.625a5.92 5.92 0 0 0 2 4.451v4.24c-.717 1.065-2 3.135-2 4.309a3.006 3.006 0 0 0 2 2.829v10.862c-.717 1.065-2 3.135-2 4.309a3.006 3.006 0 0 0 2 2.829v15.171a1 1 0 0 0 1 1h6a1 1 0 0 0 1-1v-20.171a3.006 3.006 0 0 0 2-2.829c0-1.174-1.283-3.244-2-4.309v-17.24a5.92 5.92 0 0 0 2-4.451c0-3.025-4.686-8.959-5.22-9.625a1.032 1.032 0 0 0 -1.56 0zm.78 2.26c.745.994 1.555 2.17 2.256 3.316a9.308 9.308 0 0 0 -1.86 1.88 8.586 8.586 0 0 0 -1.982-2.931c.523-.8 1.07-1.576 1.586-2.265zm2.375 10.565a.986.986 0 0 0 -.375.97v11.83h-2v2h2v3.694c-.715 1.061-2 3.128-2 4.306h2a7.485 7.485 0 0 1 1-2.143 7.484 7.484 0 0 1 1 2.143 1 1 0 0 1 -1 1 1 1 0 0 0 -1 1v20h-4v-5h2v-2h-2v-2h2v-2h-2v-4a1 1 0 0 0 -1-1 1 1 0 0 1 -1-1 7.485 7.485 0 0 1 1-2.143 7.485 7.485 0 0 1 1 2.143h2c0-1.178-1.285-3.245-2-4.306v-11.694a1 1 0 0 0 -1-1 1 1 0 0 1 -1-1 7.473 7.473 0 0 1 1-2.143 7.485 7.485 0 0 1 1 2.143h2c0-1.178-1.285-3.245-2-4.306v-4.462a1 1 0 0 0 -.375-1.034 3.96 3.96 0 0 1 -1.625-3.198 8.454 8.454 0 0 1 1.328-3.356 6.448 6.448 0 0 1 1.672 4.356v1a1 1 0 0 0 2 0 5.669 5.669 0 0 1 2.249-4.278 5.95 5.95 0 0 1 .751 2.278 3.96 3.96 0 0 1 -1.625 3.2z"/></g></svg>