<svg id="Layer_1" data-name="Layer 1" xmlns="http://www.w3.org/2000/svg" viewBox="0 0 200 200"><defs><style>.cls-1{fill:#010101;}.cls-2{fill:#e6656f;}.cls-3{fill:#ed2024;}.cls-4{fill:#b2d683;}.cls-5{fill:#96cd82;}.cls-6{fill:#090202;}</style></defs><path class="cls-1" d="M127.64,123c1.52.11,2.06,1.14,2.25,2.45a30.17,30.17,0,0,1-7,24.89,28.32,28.32,0,0,1-12.19,8.53,7.92,7.92,0,0,0-5.27,5.39c-.62,2-1.41,3.92-2.16,5.87A7,7,0,0,1,96.21,175c-1,0-2,0-3.07,0-1.57,0-2.51-.88-2.5-2.23s1-2.14,2.56-2.16h3.47c-1.26-3-2-6.16-3.62-8.89-.94-1.56-2.61-2.24-4.27-2.9a29.44,29.44,0,0,1-15.58-13.7,30.45,30.45,0,0,1,20.94-44.47c.81-.16,1.07-.4,1-1.19a81.08,81.08,0,0,0-7.73-27.16,10.69,10.69,0,0,1-7.34,2.88c-4,0-6.78-2.09-9-5.1-1.08-1.45-2.14-2.9-3.18-4.38a9.54,9.54,0,0,0-5.33-3.85c-2.78-.79-5.46-1.82-7-4.55a13.19,13.19,0,0,1-1.35-3,26.43,26.43,0,0,0-3.25-7.13c-2-3.17-4.1-6.28-5.85-9.6S42.91,31.2,45,28c1.14-1.7,2.89-2.35,4.66-3h3.81a52.85,52.85,0,0,1,9.18,3.44,4.65,4.65,0,0,0,3.69-.12,19.92,19.92,0,0,1,10.78-1c4.65.83,7.27,4,9.19,8a39.54,39.54,0,0,1,2.32,6A9.45,9.45,0,0,0,90.9,45c2.29,2.52,4.85,4.82,6.72,7.71,3.17,4.89,2.72,10.53-1.15,14.12a10.08,10.08,0,0,1-4.29,2.42c-.92.24-1.05.58-.62,1.45a82.13,82.13,0,0,1,5.66,15.42,76.84,76.84,0,0,1,2.3,12.77c0,.4-.16,1,.45,1.09s.56-.6.65-.94a63.62,63.62,0,0,1,9.54-20.51c.58-.83.73-1.16-.35-1.8-5.21-3.09-6.15-8.88-2.34-13.6a24.86,24.86,0,0,1,5.79-4.89,13.41,13.41,0,0,0,4.58-5.16,16.26,16.26,0,0,1,5.7-6.73c3.75-2.31,7.83-2,11.5-.3a12.45,12.45,0,0,0,9.6.77,11.68,11.68,0,0,1,7.34.1,6.51,6.51,0,0,1,3.76,9,20.37,20.37,0,0,1-3.37,4.57c-1.59,1.78-3.23,3.53-4.85,5.29a12.06,12.06,0,0,0-2.34,3.34,9.54,9.54,0,0,1-8.79,6.18,7.89,7.89,0,0,0-5.13,2.49A44,44,0,0,1,127,81.68a9.17,9.17,0,0,1-11.92-.39c-.85-.76-1.1-.55-1.65.25a63.6,63.6,0,0,0-8.27,17.61c-.36,1.21,0,1.45,1,1.67a29.72,29.72,0,0,1,19.12,13.1c1.2,1.8,1.16,2.4-.33,3.92a2.19,2.19,0,0,1-2.92-.33,1.1,1.1,0,0,1-.29-.32c-1.28-2.67-3.57-3-6.16-2.73a24.19,24.19,0,0,1-3.51,0,4.89,4.89,0,0,1-1.85-.41,2.6,2.6,0,0,1-1.7-2.51,2.47,2.47,0,0,1,1.81-2.25,9.09,9.09,0,0,1,2.9-.35c-6.55-4.78-18.48-5.58-26.93,0,4.81,0,9.6,0,14.38,0a4.71,4.71,0,0,1,2,.37,2.47,2.47,0,0,1,1.51,2.32,2.35,2.35,0,0,1-1.46,2.33,6.14,6.14,0,0,1-2.71.5c-6,0-11.91,0-17.87,0-1.67-.32-2.69.48-3.61,1.83a25.79,25.79,0,0,0,1.76,30.76A23.86,23.86,0,0,0,89.82,154c4.8,1.84,8.16,4.86,9.47,9.93a3.13,3.13,0,0,0,.65,1.31c.36-.9.72-1.72,1-2.57a12.15,12.15,0,0,1,7.91-8.19,25.29,25.29,0,0,0,10.44-7.29,26.09,26.09,0,0,0,6.2-17.35c0-1.36-.31-2.7-.44-4.06C124.86,123.92,125.83,122.9,127.64,123Z"/><path class="cls-2" d="M81.94,114q9.21,0,18.43-.09a8.57,8.57,0,0,0,2-.18,1.92,1.92,0,0,0,1.53-1.9,2,2,0,0,0-1.37-2.18,5.09,5.09,0,0,0-2-.25c-5.07,0-10.13,0-15.31,0,7-5.83,20.32-7,29.63,0-1.27,0-2.26,0-3.24,0-1.67.06-2.73.95-2.73,2.25s1,2.2,2.71,2.24c2.34.06,4.69.07,7,0a2,2,0,0,1,2,1.08c.29.5.71.93,1,1.43a2.75,2.75,0,0,0,3.34,1.41,21.19,21.19,0,0,1,1.71,4.09c.18.52.31,1,.93,1.08-1.87.38-2.46,1.21-2.17,3.06A25.9,25.9,0,0,1,120,146.84c-.18.22-.41.41-.61.61-2.41,1.62-5.22,1.9-8,2.1A27.65,27.65,0,0,1,92.23,144a28.45,28.45,0,0,1-11.28-19,27.89,27.89,0,0,1,.33-9.43A2.94,2.94,0,0,1,81.94,114Z"/><path class="cls-3" d="M81.94,114c-.09,1.6-.53,3.14-.67,4.75a28.15,28.15,0,0,0,22.82,30,26.55,26.55,0,0,0,14.49-1.19,4.73,4.73,0,0,1,.85-.16,20.3,20.3,0,0,1-9.19,6.76,13.85,13.85,0,0,0-9.61,10.25,16.66,16.66,0,0,1-.68,1.74,12.6,12.6,0,0,1-1.41-3.36,12.56,12.56,0,0,0-7.72-8c-9.44-3.75-15.09-10.69-16.62-20.7a24.7,24.7,0,0,1,5.22-19.48C80.15,113.68,81,114,81.94,114Z"/><path class="cls-4" d="M48.43,31.11c.65-1.64,2.07-1.78,3.52-1.67A17,17,0,0,1,57.53,31c.94.42,1.85.86,2.78,1.29a9.06,9.06,0,0,0,7.09.36,17.26,17.26,0,0,1,8.45-1.07,7.4,7.4,0,0,1,5.44,3.75,32.87,32.87,0,0,1,3.27,7.61,12.73,12.73,0,0,0,2.69,4.62,84.13,84.13,0,0,1,6.22,7A7.72,7.72,0,0,1,95.2,60.1c-.4,3.35-3.13,4.83-5.76,5.32-.74.14-.89-.45-1.14-.88A81.19,81.19,0,0,0,75.58,48.21c-2.19-2.17-4.53-4.15-6.91-6.09a2.67,2.67,0,0,0-3.11-.41c-.65.38-1.14,0-1.59-.37A87.71,87.71,0,0,0,49.25,31.9,1.51,1.51,0,0,1,48.43,31.11Z"/><path class="cls-5" d="M48.43,31.11A83.38,83.38,0,0,1,64,40.94a3,3,0,0,0,1.54.77c-1.33,1.69-1.22,2.65.52,4A76,76,0,0,1,84.62,67a1.36,1.36,0,0,1-.29,2.07,5.91,5.91,0,0,1-8.4-.11,36.94,36.94,0,0,1-4.35-5.69,13.15,13.15,0,0,0-7.87-5.67,7.11,7.11,0,0,1-5.77-5.79c-.93-3.91-3.41-7.07-5.46-10.43a59.79,59.79,0,0,1-4-6.95C48,33.31,47.68,32.23,48.43,31.11Z"/><path class="cls-5" d="M136.71,58.1a2.71,2.71,0,0,0-3.25-.08,64.18,64.18,0,0,0-18.74,14.73,1.54,1.54,0,0,1-2.21.47c-3.24-1.66-3.85-4.88-1.34-7.6,1.84-2,4.16-3.37,6.29-5a11.84,11.84,0,0,0,3.42-3.93c.57-1.07,1.17-2.13,1.84-3.15,3-4.53,6.37-5.59,11.26-3.16,3.14,1.56,6.21,2.48,9.65,1.23a15.33,15.33,0,0,1,3.86-.74c1.33-.13,2.72-.23,3.84.79-.18.55-.68.67-1.14.81a70.42,70.42,0,0,0-12.78,5.41A1.68,1.68,0,0,1,136.71,58.1Z"/><path class="cls-4" d="M136.71,58.1c1.78-1.49,4-2.22,6-3.22a91.84,91.84,0,0,1,8.61-3.21c1.07,1,.71,2.09,0,3.13a65,65,0,0,1-5.58,6.38,28.52,28.52,0,0,0-5.19,7.2,3.89,3.89,0,0,1-3.44,2.32,13.92,13.92,0,0,0-9.51,4.51A20.34,20.34,0,0,1,124,78.38a4.75,4.75,0,0,1-6.23-.71c-.56-.6-.65-.94,0-1.65A61.06,61.06,0,0,1,135.48,62C137.47,60.89,137.74,60,136.71,58.1Z"/><path class="cls-6" d="M90.64,118.86c1,0,2-.08,3.06,0a2.25,2.25,0,0,1,2.28,2.2,2.19,2.19,0,0,1-2.25,2.22c-2.08.11-4.18.1-6.27,0a2.27,2.27,0,0,1-2.29-2.19,2.29,2.29,0,0,1,2.26-2.23c1.06-.1,2.14,0,3.21,0Z"/></svg>