<svg id="Layer_1" data-name="Layer 1" xmlns="http://www.w3.org/2000/svg" viewBox="0 0 200 200"><defs><style>.cls-1{fill:#010101;}.cls-2{fill:#3cb76d;}.cls-3{fill:#030403;}.cls-4{fill:#8fc961;}.cls-5{fill:#cadf88;}.cls-6{fill:#8fc861;}.cls-7{fill:#c9df88;}.cls-8{fill:#010402;}.cls-9{fill:#020401;}</style></defs><path class="cls-1" d="M64.16,150.16c-1.38,1.4-2.34,1.55-4,.59l-6.48-3.69c-2.07-1.19-2.38-2.37-1.19-4.48Q60,129.21,67.62,115.86a6.34,6.34,0,0,0,.49-.88c.48-1.2.12-1.73-1.15-1.74a11.59,11.59,0,0,1-11.08-8.58,2,2,0,0,0-1.34-1.58,13.92,13.92,0,0,1-7.9-17.93,1.8,1.8,0,0,0-.26-1.94,20.26,20.26,0,0,1,8.81-30.44,1.55,1.55,0,0,0,1-1.13c1.87-6.35,6.14-9.91,12.7-10.6a12.7,12.7,0,0,1,8.85,2.37,2.1,2.1,0,0,0,2.18.29,15,15,0,0,1,14.42,1.81c.73.49,1.05.56,1.65-.23a25.16,25.16,0,0,1,38.9-2.05,23.2,23.2,0,0,1,5.7,10.43,1.82,1.82,0,0,0,1.6,1.56,19.08,19.08,0,0,1,14.61,20.71,18.19,18.19,0,0,1-4.89,10.61c-.64.67-.67,1,.12,1.59a14.3,14.3,0,0,1,1.11,21.26,2.53,2.53,0,0,0-.92,2.36,17.12,17.12,0,0,1-14.06,19c-.78.16-1,.62-1.13,1.28a14.58,14.58,0,0,1-14.92,11.37A14.34,14.34,0,0,1,110,136.23c-.24-.39-.47-.79-.73-1.25-2.41,1.56-4.78,3.1-7.16,4.62a2.92,2.92,0,0,0-.91,1.18Q95,151.67,88.85,162.55a7.16,7.16,0,0,1-2,2.45H85l-6.87-4c-1.78-1-2.12-1.85-1.58-3.83a2.37,2.37,0,0,1,3.28-1.35,23.89,23.89,0,0,1,3.45,1.86c1.55.87,1.61.84,2.48-.75,1.89-3.45,3.89-6.83,5.83-10.26a2.66,2.66,0,0,0,.53-1.19c-1.36.57-2.57,1.35-3.9,1.86a2.71,2.71,0,0,1-3.48-1.26,2.89,2.89,0,0,1,.81-3.64,12.69,12.69,0,0,1,1.75-1c2.16-1.16,4.3-2.37,6.5-3.44a122.74,122.74,0,0,0,12.26-7.4c4-2.58,8-5.19,12.06-7.76.55-.36,1.21-.64.88-1.57-.41-1.18-.66-1.3-1.83-.78-5.67,2.56-11.11,5.58-16.78,8.14-.27.12-.53.27-.8.39-1.56.69-2.65.56-3.61-.43s-1.1-2.1-.29-3.62c1.83-3.43,3.82-6.78,5.74-10.16,2.23-3.93,4.44-7.88,6.71-11.8.62-1.06.6-1.15-.63-1.29a17.88,17.88,0,0,1-10.08-4.37c-.73-.64-1.12-.39-1.55.36-3,5.27-6,10.6-9,15.87-.83,1.43-1.61,2.89-2.43,4.32-1,1.67-2.61,2.3-4,1.54s-1.93-2.4-1.07-4.16,1.93-3.48,2.93-5.2a3.14,3.14,0,0,0,.42-2.41c-1.46-6.52-2.8-13.06-4.25-19.59-.37-1.68-.72-1.66-2.22-.74-2.07,1.27-2.68,2.91-2.62,5.33.19,7.06,0,14.13.1,21.19a9,9,0,0,1-1.28,4.68c-4.53,7.83-9,15.72-13.42,23.59-.76,1.34-.74,1.34.62,2.11s2.54,1.35,3.72,2.18C64.87,147.48,65.12,148.76,64.16,150.16Z"/><path class="cls-2" d="M64.16,150.16c.54-2.12.21-2.86-1.77-4-1.24-.72-2.46-1.47-3.74-2.12-.74-.38-.78-.7-.37-1.41,4.73-8.27,9.41-16.57,14.14-24.85a6.61,6.61,0,0,0,.94-3.47c-.07-8-.06-16.07-.12-24.11a1.72,1.72,0,0,1,.93-1.73,21.15,21.15,0,0,0,2.42-1.84c1-.83,1.77-.58,2.07.77.6,2.72,1.19,5.43,1.77,8.15.89,4.16,1.74,8.32,2.67,12.47a2.08,2.08,0,0,1-.26,1.66c-1.08,1.86-2.13,3.73-3.19,5.61a2.74,2.74,0,0,0-.27,2.64,2.49,2.49,0,0,0,4.35.42,23.56,23.56,0,0,0,1.33-2.29c3.61-6.34,7.23-12.68,10.81-19,.43-.76.66-1,1.41-.29a18.17,18.17,0,0,0,11.87,4.78c0,.55-.31.88-.52,1.26L96.26,124.56a3.63,3.63,0,0,0-.75,2.37,2.55,2.55,0,0,0,3.75,1.89c2.11-1,4.17-2,6.26-3,4-2,8-3.92,12-5.92.84-.42,1.31-.38,1.51.6a1.67,1.67,0,0,0,.31.69c.56.74.26,1.09-.44,1.54-6.4,4.09-12.75,8.27-19.17,12.33-4.21,2.66-8.76,4.72-13.11,7.13-.91.5-1.75,1-1.88,2.19A2.47,2.47,0,0,0,88.39,147c1.48-.69,2.9-1.51,4.35-2.26.29.44,0,.69-.2,1-2.34,4.15-4.71,8.29-7,12.45-.39.71-.69.87-1.42.4-1.13-.74-2.33-1.37-3.51-2-1.75-1-2.62-.8-4,.68-1.78-1-3.48-2.12-5.35-2.95-.23-.21-.15-.47-.09-.7a2.28,2.28,0,0,0-3.64-2.33,1.51,1.51,0,0,1-.78.38Z"/><path class="cls-3" d="M66.71,151.56c1.21-1.32,2.32-1.62,3.51-.94s1.54,1.88,1,3.59c-1.12,1.21-2.33,1.51-3.46.86S66.21,153.23,66.71,151.56Z"/><path class="cls-4" d="M136.36,59.92a20.17,20.17,0,0,1-15.81,20,8.86,8.86,0,0,0-1.23.31,2.49,2.49,0,0,0-1.67,2.89,2.44,2.44,0,0,0,2.94,1.94,24.51,24.51,0,0,0,12-5.59,22.57,22.57,0,0,0,4.32-4.78c.4-.61.69-.6,1.28-.17a15.51,15.51,0,0,1,1.74,23.11c-.14.16-.3.3-.45.45-1.58,1.69-1.31,3.46.75,4.51a12.14,12.14,0,0,1,6.5,7.54,12.24,12.24,0,1,1-23.78,5.52,11.53,11.53,0,0,1,1.9-8.68c.29-.42.58-.84.85-1.26,1.09-1.67.64-3.33-1.2-4a17.35,17.35,0,0,1-7.84-5.36c-.91-1.12-2.09-1-3.35-.62a12.61,12.61,0,0,1-11.83-2.15,12.35,12.35,0,0,1-4.79-8.06c-.06-.34-.14-.67-.2-1-.42-2.17-2.07-3-4-1.92a11.82,11.82,0,0,1-4.27,1.45,9.86,9.86,0,0,1-8.11-2.71c-.38-.34-.72-.73-1.1-1a2.48,2.48,0,0,0-3.78.33,15.24,15.24,0,0,1-26.77-4.78A15.43,15.43,0,0,1,55,58.52c5.41-3.33,13.57-2.73,18.12,1.66a9.69,9.69,0,0,1,2.46,4.49,11.92,11.92,0,0,0,.49,1.57A2.43,2.43,0,0,0,79,67.67a2.59,2.59,0,0,0,1.88-2.92A15.05,15.05,0,0,0,76,55.85a1.18,1.18,0,0,1-.38-1.68,10.72,10.72,0,0,1,17.33-3.28l.71.72c1.86,1.88,3.54,1.63,4.83-.72a19.88,19.88,0,0,1,13.81-10.33,20.22,20.22,0,0,1,23,12.89A18,18,0,0,1,136.36,59.92Z"/><path class="cls-4" d="M51.09,88.08a21.63,21.63,0,0,0,7.66,3.32,18.48,18.48,0,0,0,8.14,0c.92-.21,1.25,0,1.25,1q0,7.22.11,14.44c0,1-.28,1.3-1.27,1.28a6.6,6.6,0,0,1-6.33-5.9c-.18-2.26-.74-3.09-2.76-3.48A8.83,8.83,0,0,1,51.09,88.08Z"/><path class="cls-5" d="M122,138.3a9.6,9.6,0,0,1-8-5.33c-.3-.57-.33-.89.32-1.29,2.69-1.67,5.33-3.41,8-5.14.39-.25.65-.39,1.07,0a16.55,16.55,0,0,0,7.87,4.09c.91.2.79.55.57,1.2A10,10,0,0,1,122,138.3Z"/><path class="cls-5" d="M148.84,82.2a20.32,20.32,0,0,0-8.46-12.3.82.82,0,0,1-.37-1.14,22.81,22.81,0,0,0,1.43-7.54c0-.77.25-.86,1-.63C151.21,63.37,154.75,74.93,148.84,82.2Z"/><path class="cls-4" d="M104.53,120.34q3.23-5.7,6.46-11.4c1.16-2,2.34-4.09,3.49-6.15.33-.6.56-.83,1.17-.25a15.61,15.61,0,0,0,3.53,2.43c.55.28.61.54.35,1.06a15.26,15.26,0,0,0-1.77,7.41,1,1,0,0,1-.72,1l-12.34,6Z"/><path class="cls-4" d="M87.06,102.23c-.72-3.34-1.38-6.38-2-9.41-.22-1-.41-2.06-.68-3.08-.14-.55,0-.72.54-.63a14.14,14.14,0,0,0,6.62-.51.8.8,0,0,1,.59.07,5.71,5.71,0,0,1,.77,3.38Z"/><path class="cls-6" d="M148.77,92.15a9,9,0,0,1,1.33,13,19.36,19.36,0,0,0-4.66-5.25c-.31-.22-.3-.44-.08-.74A23.12,23.12,0,0,0,148.77,92.15Z"/><path class="cls-7" d="M61.83,51.27a9,9,0,0,1,11.83-4.35c.55.26.46.46.14.81A14.7,14.7,0,0,0,71,52c-.2.47-.47.65-1,.45A19,19,0,0,0,61.83,51.27Z"/><path class="cls-8" d="M75.12,124a2.53,2.53,0,1,1,2.44,2.56A2.61,2.61,0,0,1,75.12,124Z"/><path class="cls-9" d="M114.55,82.52a2.48,2.48,0,0,1-5,.15,2.48,2.48,0,1,1,5-.15Z"/></svg>