<svg id="Layer_1" data-name="Layer 1" xmlns="http://www.w3.org/2000/svg" viewBox="0 0 200 200"><defs><style>.cls-1{fill:#010101;}.cls-2{fill:#3c3a3a;}.cls-3{fill:#46b756;}.cls-4{fill:#31aa4a;}.cls-5{fill:#85c98e;}.cls-6{fill:#30aa4a;}.cls-7{fill:#279c48;}.cls-8{fill:#30a94a;}.cls-9{fill:#527f59;}</style></defs><path class="cls-1" d="M121,38.19a2,2,0,0,1,2.88-.64,15.82,15.82,0,0,1,8.4,8.7,3.16,3.16,0,0,0,3,2.22,17.6,17.6,0,0,1,15.54,15.26c.2,1.56.58,1.92,2.23,1.91a14.7,14.7,0,0,1,7.53,1.79c4.44,2.51,5.71,7.27,3.26,11.87a13.29,13.29,0,0,1-5.52,5.59c-.84.45-1,.85-.74,1.76a92.94,92.94,0,0,1,3.06,25.55c0,2.07-.26,4.13-.45,6.19a1.92,1.92,0,0,1-1.59,1.75,1.84,1.84,0,0,1-2.5-1.7,5.94,5.94,0,0,1,0-1.52,77.73,77.73,0,0,0,.2-11.52A89.57,89.57,0,0,0,154.46,92a12.5,12.5,0,0,1-.18-1.71,61.37,61.37,0,0,1-.13,15.8,30.09,30.09,0,0,1-11.85,19.86,49.58,49.58,0,0,1-18.45,9c-1.07.26-2.08.69-3.12,1A27.27,27.27,0,0,0,109,145.4a42.79,42.79,0,0,0-5.71,11.13c-.26.73-.35,1.33.59,1.57a29.28,29.28,0,0,0,10.77,1.07c9.87-.86,18.15-5.26,25.6-11.5,4.67-3.92,8.77-8.32,11.37-13.93a53.61,53.61,0,0,0,2.45-6.39,4.25,4.25,0,0,1,.87-1.67,1.74,1.74,0,0,1,2.56-.18,2.26,2.26,0,0,1,.66,2.73c-2.66,9.53-8.18,17.08-15.88,23.18-6.17,4.9-12.78,8.91-20.5,10.84a35.63,35.63,0,0,1-20.33-.54,7.42,7.42,0,0,0-3.25,0c-7,.8-13.92.57-20.64-1.75-7.47-2.58-12.93-7.58-17-14.27-2.14-3.54-3.76-7.35-5.85-10.91-1.42-2.4-1.75-2.48-4.47-2.19-4.58.49-10.07-1.57-12.44-5.72-1.89-3.3-1.36-7.22,1.48-10.36a20,20,0,0,1,2.1-2c.46-.39.66-.64.2-1.19a15.44,15.44,0,0,1-3.47-9.31,13.18,13.18,0,0,1,1-6.06,5.82,5.82,0,0,0-.61-6.18,18.75,18.75,0,0,1-3.33-9.29c-.27-.84.11-1.75-.22-2.59V77.64a37.31,37.31,0,0,1,1.66-6C40.47,63,47,58.24,56.47,57.7a4.44,4.44,0,0,0,3.88-2.12,19.49,19.49,0,0,1,22.76-7.11,3,3,0,0,0,3.53-.64,17.9,17.9,0,0,1,15.89-4.65,1.26,1.26,0,0,0,1.44-.56,16,16,0,0,1,8.75-5.89c1.53-.42,2.06-.23,2.94,1.13a1.82,1.82,0,0,1-.88,2.48A9.74,9.74,0,0,1,113,41a11.67,11.67,0,0,0-4.48,2.75c-.58.57-.72,1,.12,1.44s1.44,1,2.19,1.48A18.52,18.52,0,0,1,117.19,57a2,2,0,0,0,1.45,1.69A51.38,51.38,0,0,1,134.92,68a37,37,0,0,1,4.56,4.38c.86,1,.93,1,1.56-.13A14.63,14.63,0,0,1,146.09,67c.48-.3.9-.55.82-1.26-.51-4.45-2.25-8.21-6-10.84a12.59,12.59,0,0,0-6.21-2.34c-2.94-.23-5.05-1.54-6.09-4.37a12.09,12.09,0,0,0-6.65-7C120.36,40.2,120.09,39.36,121,38.19Z"/><path class="cls-2" d="M35,79.93c.47.83.19,1.72.22,2.59l-.22,0Z"/><path class="cls-3" d="M157.54,125.5c-1.73-.5-2.47-.13-3,1.64-1.6,5.26-3.81,10.24-7.5,14.37-7.8,8.72-17,15.21-28.75,17.56a12.6,12.6,0,0,1-3.52.33,18.44,18.44,0,0,1-3.15.1,1.66,1.66,0,0,1-1.44-.89,8,8,0,0,1-.91-8.05,39,39,0,0,1,9.23-13.34c.63-.58,1.38-1,2.05-1.48a16.92,16.92,0,0,1,3.54-1.25c9.62-2.68,18.11-7.2,24.28-15.28,4.08-5.35,5.74-11.58,5.93-18.23.11-3.67,0-7.35-.13-11A31.7,31.7,0,0,1,155.55,96a88,88,0,0,1,1,18.42c-.05,1.1-.21,2.19-.24,3.28,0,1.69.46,2.23,2.18,2.42Z"/><path class="cls-4" d="M110.66,46.9c-.7-.47-1.38-1-2.1-1.4-1.39-.84-1.41-.83-.21-2a12.76,12.76,0,0,1,5.56-3.12,2.14,2.14,0,0,0,1.75-2.52,16.62,16.62,0,0,1,5.31.33c-.57,1.33,0,2.21,1.13,2.88-.23.31-.58.3-.91.33a14.27,14.27,0,0,0-9.77,4.87A1.73,1.73,0,0,1,110.66,46.9Z"/><path class="cls-5" d="M82.44,84.79a37,37,0,0,0-10.43,1c-.21,0-.4.14-.6.2-1.45.45-2.08,1.33-1.73,2.45S71,90,72.43,89.64A30.86,30.86,0,0,1,87,89.34a3,3,0,0,1,1.86,1.14,68.5,68.5,0,0,1,7.83,12.83,30.23,30.23,0,0,0-7.81-2.1,46.54,46.54,0,0,0-15,.91,51.25,51.25,0,0,0-7.28,2.09c-1.42.52-2,1.4-1.62,2.56s1.42,1.54,2.83,1.06a50.2,50.2,0,0,1,18.12-3,21.65,21.65,0,0,1,12.56,4.06,2.76,2.76,0,0,1,1,1.39,70.09,70.09,0,0,1,3.22,14.79,59.91,59.91,0,0,0-6.58-2.65A33.15,33.15,0,0,0,84,121c-1.29.1-2.08.82-2.06,1.92a1.87,1.87,0,0,0,2.1,1.88,33.24,33.24,0,0,1,9.06.77,36.81,36.81,0,0,1,9.35,3.77,1.14,1.14,0,0,1,.62,1.11,84.58,84.58,0,0,1-1.42,18.66,15.18,15.18,0,0,1-1.49,3.65,55.13,55.13,0,0,0-4.38-6.38c-3.89-4.67-8.33-8.51-14.56-9.65-.63-.11-.71-.59-.85-1.1a30.68,30.68,0,0,0-5.25-11,17.63,17.63,0,0,0-11-7,3.47,3.47,0,0,1-2-1.12,16.11,16.11,0,0,0-9.6-5.46c-.62-.09-.82-.37-.82-1-.19-18.46,7.36-32.79,22.93-42.78a47.57,47.57,0,0,1,19.58-7.14c13.9-1.84,26.46,1.44,37.4,10.41a57.57,57.57,0,0,1,6.89,6.9c.52.59.49.93-.11,1.41-5.18,4.11-6.87,9.69-6.78,16a30.63,30.63,0,0,0,1,7.13,1.2,1.2,0,0,1-.39,1.45c-4.43,3.65-6.51,8.6-7.63,14a46.7,46.7,0,0,0-.78,11.86c0,.67,0,1.13-.84,1.35A30.37,30.37,0,0,0,107.19,141c-.11.13-.23.24-.35.36s-.08,0-.18,0c.07-1.42.12-2.83.21-4.25a75.2,75.2,0,0,0-1.41-19.52,10.5,10.5,0,0,1,.19-4.15C107.89,102,113.83,93.16,124,87.31c.36-.21.74-.41,1.08-.65a1.85,1.85,0,0,0,.68-2.64,1.91,1.91,0,0,0-2.67-.59c-1.33.74-2.66,1.49-3.91,2.35a40.59,40.59,0,0,0-14.54,17.65c-.64,1.51-1.15,3.07-1.78,4.76a72.22,72.22,0,0,0-6.18-13,1.25,1.25,0,0,1-.08-1.07,36.61,36.61,0,0,1,10.65-18.34c.16-.14.32-.28.47-.43,1-1,1.17-2.13.32-3s-1.83-.75-2.9.18A38.64,38.64,0,0,0,94.18,89l-.56,1.48c-1.72-2.24-3.32-4.34-5.1-6.29a62.21,62.21,0,0,0-10.8-9.57c-1.18-.8-2.25-.75-3,.1a1.89,1.89,0,0,0,.6,2.92,61.23,61.23,0,0,1,8.13,6.86C83.32,85.18,82.83,84.81,82.44,84.79Z"/><path class="cls-6" d="M49.2,63.39a15,15,0,0,1,8-1.88A6.74,6.74,0,0,0,63.34,58a15.61,15.61,0,0,1,18.2-6c3.24,1.22,5.71.53,8.17-1.75,7.55-7,20.41-3.25,23.18,6.84-1.87-.29-3.68-.59-5.5-.85a48.38,48.38,0,0,0-14.76.16,53.18,53.18,0,0,0-44,43.11,75.14,75.14,0,0,0-.8,11.6c-1,.22-1.1-.6-1.37-1.14a15,15,0,0,1-.73-11.83c.52-1.52,1.1-3,.6-4.69A12.69,12.69,0,0,0,45,90.63c-4.43-7.39-4.35-14.84-.23-22.29A12.64,12.64,0,0,1,49.2,63.39Z"/><path class="cls-3" d="M47.92,115.38a8.49,8.49,0,0,1,7.18.54,14.4,14.4,0,0,1,5,4.07,3.62,3.62,0,0,0,2.6,1.34,14.26,14.26,0,0,1,9.71,6.06,28.36,28.36,0,0,1,4.75,11.07,2.08,2.08,0,0,0,1.94,1.86c4.74.4,8.42,2.84,11.61,6.1a41.37,41.37,0,0,1,7.72,11.4,30.82,30.82,0,0,1-5.93.49,34.76,34.76,0,0,1-13.3-1.92c-4.89-2.34-8.36-6.19-11.31-10.58a83.62,83.62,0,0,1-5.06-9.36,33.29,33.29,0,0,0-2.12-3.6,4.1,4.1,0,0,0-3.53-2.12,1.36,1.36,0,0,1-.82-.29c-1.68-1.88-3.84-2.09-6.14-1.68a6.61,6.61,0,0,1-3-.13c-2.93-1-5-6.14-2.57-9.88A9.07,9.07,0,0,1,47.92,115.38Z"/><path class="cls-6" d="M151,69.77a10.32,10.32,0,0,1,8.43,1.57c1.72,1.2,2.14,3.33,1.26,5.46a8.4,8.4,0,0,1-5.17,5.1c-4.25,1.29-5.23,4.38-5.22,8.19,0,2.75.17,5.49.18,8.24,0,5.19-.63,10.26-3,15-2.57,5.11-6.6,8.81-11.35,11.81a29.61,29.61,0,0,1-4.91,2.61,2.13,2.13,0,0,1-.51-1.65c.16-6.15,1-12.14,4.41-17.47a15.9,15.9,0,0,1,3.41-3.9,2.6,2.6,0,0,0,1-3,25.31,25.31,0,0,1,.11-14.25A15.1,15.1,0,0,1,144,80.74a7.54,7.54,0,0,0,2.37-3.8,15.44,15.44,0,0,1,2.75-5.53A5.59,5.59,0,0,1,151,69.77Z"/><path class="cls-3" d="M110.66,46.9c1.72-2.77,4.39-4.23,7.34-5.24a10,10,0,0,1,4.1-.59,11.12,11.12,0,0,1,6.54,6.51,6.77,6.77,0,0,0,6.45,4.72c5.81.45,11.06,6,11.92,11.81.27,1.87.1,2.89-1.69,3.88-2.24,1.25-3.65,3.46-4.84,5.89a55.28,55.28,0,0,0-6.84-6.53,51.93,51.93,0,0,0-15.32-8.48A1.8,1.8,0,0,1,117,57.32,18.59,18.59,0,0,0,110.66,46.9Z"/><path class="cls-7" d="M151,69.77a18.75,18.75,0,0,0-4.87,8.84c-.46,1.62-2.06,2.39-3.13,3.56a16.89,16.89,0,0,0-3.95,9.37,27.73,27.73,0,0,0,1,10.95c.33,1.27-.58,1.88-1.33,2.51-3.5,3-5.27,6.89-6.48,11.15-.88,3.09-1,6.3-1.25,9.46a10.19,10.19,0,0,0,.23,2.12,22.37,22.37,0,0,1-3.56,1.58c-.15-6.88.33-13.5,4.05-19.46a14.2,14.2,0,0,1,3.73-3.92c1.62-1.18,1.78-1.63,1.26-3.53A25.53,25.53,0,0,1,136,89.65a12.75,12.75,0,0,1,4.89-7.74,4.87,4.87,0,0,0,2-3.09c.75-3.33,2.13-6.32,5.27-8.13A5.45,5.45,0,0,1,151,69.77Z"/><path class="cls-7" d="M49.2,63.39A22.85,22.85,0,0,0,43.41,72a20.26,20.26,0,0,0,.56,16c.66,1.41,1.43,2.77,2.19,4.13a5.36,5.36,0,0,1,.44,4.72,18.55,18.55,0,0,0-1.38,5.87,14.73,14.73,0,0,0,2.11,8.19c.09.15.36.2.54.29-2.25,1.1-2.52,1-3.81-1a11.61,11.61,0,0,1-1.2-11,9.69,9.69,0,0,0-.93-9.24c-4.74-7.61-4-15.93,1.9-22.64A13.44,13.44,0,0,1,49.2,63.39Z"/><path class="cls-6" d="M120.54,135.74a42.27,42.27,0,0,0-8.33,9.76,24.1,24.1,0,0,0-3.14,6.86,7.49,7.49,0,0,0,1.68,6.48,1.35,1.35,0,0,0,1.22.54c.93,0,1.86,0,2.79,0-2.31.55-4.62.12-6.9-.14a35.85,35.85,0,0,1-4.44-1c-.63-.14-.91-.47-.66-1.19,2.49-7.18,6.1-13.6,12.3-18.28A20.3,20.3,0,0,1,120.54,135.74Z"/><path class="cls-6" d="M56.32,130.44c2.24-.28,3.72.77,4.89,2.61,1.45,2.29,2.58,4.74,3.79,7.15a41.46,41.46,0,0,0,8.91,12.3c1.62,1.48,3.52,2.56,5.25,3.89A24.27,24.27,0,0,1,68,149.15c-3.69-4-6-8.93-8.46-13.73A25.21,25.21,0,0,0,56.32,130.44Z"/><path class="cls-8" d="M47.92,115.38c-.69.94-1.62,1.65-2.38,2.55A7,7,0,0,0,47,128.34a1.34,1.34,0,0,1,.23.29,8.36,8.36,0,0,1-5-2.3,4.45,4.45,0,0,1-.85-6.07A11.05,11.05,0,0,1,47.92,115.38Z"/><path class="cls-9" d="M82.44,84.79c.33-.17.8.14,1-.3.31.15.54.37,0,.49A1.22,1.22,0,0,1,82.44,84.79Z"/></svg>