<svg id="Layer_1" data-name="Layer 1" xmlns="http://www.w3.org/2000/svg" viewBox="0 0 200 200"><defs><style>.cls-1{fill:#010101;}.cls-2{fill:#3a3838;}.cls-3{fill:#4e4b4b;}.cls-4{fill:#f58249;}.cls-5{fill:#050403;}.cls-6{fill:#3cb76d;}.cls-7{fill:#020101;}.cls-8{fill:#020201;}.cls-9{fill:#050201;}.cls-10{fill:#010402;}</style></defs><path class="cls-1" d="M167.48,76.3c-.68,1.67-.95,3.48-1.84,5.1A16.25,16.25,0,0,1,154,89.93a1.31,1.31,0,0,0-1.21,1.22,16.07,16.07,0,0,1-11.22,12.73,14.12,14.12,0,0,1-10-.58c-1.1-.44-1.29-.13-1.59.84-2.15,7-6.18,12.92-11,18.35-8.1,9.19-17.68,16.64-27.93,23.25a175.27,175.27,0,0,1-37.2,18.65,47.74,47.74,0,0,1-11.54,2.89c-.43.23-1-.09-1.38.22H37.52c-4.36-1.9-5.16-3-5-8a44.73,44.73,0,0,1,3-13.13,180.36,180.36,0,0,1,21.07-40.95,147.87,147.87,0,0,1,12.07-15.6C70.18,88.15,71.05,88,73,89a2.25,2.25,0,0,1,.88,2.86,10.49,10.49,0,0,1-2.12,3c-2.07,2.5-2.12,1.88.07,4.11,1.33,1.35,2.69,2.65,4,4A3.1,3.1,0,0,1,77,105.8a2.91,2.91,0,0,1-5,1.6c-1.63-1.48-3.12-3.1-4.68-4.64-1-1-1.14-1-2,.13a183.42,183.42,0,0,0-19,32,100.25,100.25,0,0,0-7.67,21.27c-.24,1.12-.35,2.26-.48,3.39-.25,2,.35,2.54,2.38,2.32a45.18,45.18,0,0,0,8-1.71,85.68,85.68,0,0,0,9.19-3.25c1.2-.51,1.22-.56.33-1.48s-2-1.94-2.95-3a3,3,0,0,1-.75-3.39,2.92,2.92,0,0,1,4.21-1.34A7.44,7.44,0,0,1,60.21,149c1.27,1.27,2.57,2.52,3.81,3.83a1.63,1.63,0,0,0,2.21.37c5-2.46,9.88-5,14.65-7.79a168,168,0,0,0,23.59-16.55c2.42-2,4.66-4.27,6.89-6.51.68-.68.53-1.15-.08-1.75-1.66-1.62-3.3-3.28-4.94-4.93A7.19,7.19,0,0,1,105,114a2.91,2.91,0,0,1,.51-3.41,2.73,2.73,0,0,1,3.37-.55,8.15,8.15,0,0,1,2,1.53c1.52,1.53,3,3,4.56,4.57.55.56,1,.64,1.52,0,4-5.11,7.37-10.5,8.35-17.08a18.29,18.29,0,0,0-2.18-12.21c-3.34-5.76-8-10-14.56-11.78a19.33,19.33,0,0,0-10.66.3A39.87,39.87,0,0,0,87,80.67c-1.78,1.15-3.23.89-4.15-.68-.82-2-.5-3,1.35-4.19A40.91,40.91,0,0,1,96.36,70c1.07-.28.71-.8.47-1.43-2.55-6.62-1.24-12.49,4-17.33a15,15,0,0,1,7.75-3.9,1.61,1.61,0,0,0,1.59-1.46c1.4-6.51,5.32-11,11.74-12.69s12.12.08,16.63,5.09a1.61,1.61,0,0,0,2.09.46,16.36,16.36,0,0,1,21.55,17.14,13.83,13.83,0,0,1-1,4.07c-.16.37-.38.75.12,1.14,3.59,2.81,5.41,6.64,6.2,11v1.85a2.65,2.65,0,0,0,0,1.84Z"/><path class="cls-2" d="M167.48,75.77a1.52,1.52,0,0,1,0-1.84Z"/><path class="cls-3" d="M41,167.5a1.46,1.46,0,0,1,1.38-.22.9.9,0,0,1-.06.22Z"/><path class="cls-4" d="M82.89,80c1.65,1.39,2.47,1.44,4.34.19a37.16,37.16,0,0,1,11-5.24c7.39-2,13.88-.23,19.52,4.79,4.1,3.64,7.14,8,8,13.54.73,5-.5,9.65-2.67,14.11a53.18,53.18,0,0,1-6.07,9.36c-.57.73-.88.66-1.47.05-1.8-1.87-3.66-3.68-5.49-5.51a3.64,3.64,0,0,0-1.86-1.19,2.48,2.48,0,0,0-2.78,1.28,2.56,2.56,0,0,0,.48,3.25c1.55,1.61,3.17,3.16,4.73,4.77.7.71,1.95,1.33,1.9,2.18s-1.19,1.4-1.88,2.08C101,133.09,90,140.6,78.38,147.22c-4.12,2.34-8.33,4.49-12.58,6.56a1.25,1.25,0,0,1-1.71-.29c-1.57-1.66-3.2-3.26-4.84-4.86a2.84,2.84,0,0,0-2.68-1c-2.21.5-2.87,2.85-1.26,4.6,1.17,1.26,2.41,2.45,3.64,3.64.48.46.68.72-.15,1-5.68,2.21-11.35,4.39-17.43,5.23-3.36.47-3.9,0-3.44-3.38,1.14-8.26,4.37-15.83,7.79-23.31a183.48,183.48,0,0,1,19.76-33.29c.58-.78.88-.82,1.54-.12,1.6,1.69,3.27,3.31,4.93,4.94,1.29,1.27,2.88,1.39,4,.35s1.11-2.68-.25-4.07c-1.69-1.72-3.38-3.45-5.14-5.11-.81-.76-1.08-1.3-.11-2.17a24.18,24.18,0,0,0,2.25-2.58c1.44-1.73,1.49-2.42.37-4.34a54.51,54.51,0,0,1,4-3.9c.37-.14.68.08,1,.17,2,.58,3.39-.6,3.1-2.69-.05-.39-.25-.76-.11-1.16Z"/><path class="cls-5" d="M81,81.43c.83,1.59.76,2.73-.21,3.68s-2.19,1-3.79,0c-.94-1.64-.9-2.78.13-3.77S79.46,80.32,81,81.43Z"/><path class="cls-6" d="M131.19,94.91a19,19,0,0,0-.74-4.92,1,1,0,0,1,.38-1.22,26.38,26.38,0,0,1,10.82-5.41,8.93,8.93,0,0,0,.89-.23,2.64,2.64,0,0,0,2-3.12,2.77,2.77,0,0,0-3.24-2,29.8,29.8,0,0,0-10.59,4.39c-.34.21-.65.45-1,.68-1.56,1.07-1.54,1.06-2.55-.51-.53-.81-1.11-1.58-1.71-2.33-.42-.51-.4-.82.14-1.27,2.08-1.76,4.15-3.52,6.09-5.44a79,79,0,0,0,8.2-9.6c1.1-1.52,1-3.13-.24-4.09s-2.84-.67-4,.9A73.51,73.51,0,0,1,122,75.07c-.59.48-.92.59-1.52.06a18.92,18.92,0,0,0-3.62-2.61c-.86-.45-.85-.85-.31-1.6a31.13,31.13,0,0,0,5.13-10.56c.13-.46.2-.94.29-1.41a2.72,2.72,0,0,0-2-3.44,2.57,2.57,0,0,0-3.1,2.29,27,27,0,0,1-3.71,8.77,3.79,3.79,0,0,0-.2.34c-1.1,1.91-2.3,3.42-4.91,2.29a10.71,10.71,0,0,0-4.31-.36,1.33,1.33,0,0,1-1.34-.78c-4.8-8.75,2.73-15.93,9.21-15.78,2,0,3.42-.75,3.53-3.4a10.93,10.93,0,0,1,7.68-10.51,11.16,11.16,0,0,1,12.36,4.11c.25.36.47.74.71,1.11,1.17,1.76,2.34,2.08,4.25,1.1a12.57,12.57,0,0,1,4.06-1.41,11,11,0,0,1,11.48,15.94c-1.41,2.81-1.21,3.66,1.47,5.36a11,11,0,0,1-4.46,20.19,9.29,9.29,0,0,1-1.57.16c-2.62-.11-3.33,1.51-3.38,3.53a10.87,10.87,0,0,1-7.82,10.37c-3,.93-5.68-.08-8.33-1.31-.39-.19-.4-.53-.39-.9C131.2,96.05,131.19,95.48,131.19,94.91Z"/><path class="cls-7" d="M114.86,96.34a2.52,2.52,0,0,1-1.9-.89c-2.43-2.4-4.86-4.81-7.25-7.26a2.64,2.64,0,1,1,3.71-3.72c2.45,2.39,4.86,4.82,7.26,7.26a2.62,2.62,0,0,1-1.82,4.61Z"/><path class="cls-7" d="M94.28,128.26a2.46,2.46,0,0,1-1.88-.88c-2.3-2.28-4.61-4.56-6.88-6.88a2.64,2.64,0,1,1,3.71-3.72q3.47,3.41,6.88,6.88a2.57,2.57,0,0,1,.67,3.1A2.49,2.49,0,0,1,94.28,128.26Z"/><path class="cls-7" d="M71.8,132.05a2.47,2.47,0,0,1-1.36,2.32,2.26,2.26,0,0,1-2.71-.18,74.46,74.46,0,0,1-6.87-6.89,2.53,2.53,0,0,1,.27-3.25,2.44,2.44,0,0,1,3.35-.28,82.83,82.83,0,0,1,6.89,6.88A1.81,1.81,0,0,1,71.8,132.05Z"/><path class="cls-8" d="M95.8,98.12a2.49,2.49,0,0,1-1.4,2.46,2.27,2.27,0,0,1-2.6-.14,37.82,37.82,0,0,1-5.54-5.56,2.38,2.38,0,0,1,.33-3.32,2.34,2.34,0,0,1,3.23-.23,43.67,43.67,0,0,1,5.58,5.55A1.87,1.87,0,0,1,95.8,98.12Z"/><path class="cls-9" d="M74.58,140.09A2.67,2.67,0,0,1,72,137.37a2.61,2.61,0,0,1,2.64-2.55,2.8,2.8,0,0,1,2.67,2.73A2.73,2.73,0,0,1,74.58,140.09Z"/><path class="cls-10" d="M145.09,55.69a2.54,2.54,0,0,1-2.56,2.69,2.71,2.71,0,0,1-2.68-2.64,2.77,2.77,0,0,1,2.71-2.63A2.51,2.51,0,0,1,145.09,55.69Z"/></svg>