<svg id="Layer_1" data-name="Layer 1" xmlns="http://www.w3.org/2000/svg" viewBox="0 0 200 200"><defs><style>.cls-1{fill:#010101;}.cls-2{fill:#0c743b;}.cls-3{fill:#84c37b;}.cls-4{fill:#0caf4c;}.cls-5{fill:#061107;}</style></defs><path class="cls-1" d="M75.66,125.53A134.15,134.15,0,0,1,44.41,73.72C42.26,67.06,43.42,61.15,48,56a4.63,4.63,0,0,0,1.36-3.06c.09-2.79.76-5.67.24-8.34-.92-4.78,2.63-6.62,5.24-9,1.52-1.37,3-.14,3.81,1.55A36.11,36.11,0,0,1,62.2,48.72c.19,1.43.55,2.2,2.15,2.59,6.55,1.62,10.51,5.95,12.5,12.32,5,16.12,14.43,29.61,26.12,41.45,12,12.19,26,21.66,42.45,27.09A16.71,16.71,0,0,1,156.53,150a17,17,0,0,1-15,15,21.36,21.36,0,0,1-9.54-1.54C111.42,156.11,94,144.11,75.66,125.53Z"/><path class="cls-2" d="M126.75,146.32c3.86,1.64,7.75,2.81,11.87,1a48.26,48.26,0,0,0,10.63,1.46c1,0,3.06-.83,2.42,1.58-.41,1.59,0,4.28-2.68,4-4.59-.47-9.34-.12-13.66-2.26-1.4-.69-2.78-.82-3.55.81-.84,1.78.19,2.67,1.75,3.47,3.6,1.85,7.58,1.84,12.25,2.53a14.79,14.79,0,0,1-11.15.5A123.46,123.46,0,0,1,97,138.8c-17.87-14.06-32.27-31-42.28-51.57a112,112,0,0,1-6-15.2,12.73,12.73,0,0,1,.81-10.27c.17,1.5.33,2.18.32,2.85-.07,7,3.62,12.32,7.78,17.41a21.57,21.57,0,0,1,4,8.4c1.67,6.52,4.83,11.94,10.57,15.83a22.65,22.65,0,0,1,7.49,9.47,24.65,24.65,0,0,0,11.93,12.15,28.44,28.44,0,0,1,10.94,9.49,29.87,29.87,0,0,0,4.64,4.7,2.5,2.5,0,0,0,3.2.5c1.26-.87,1.32-2.08.59-3.37,2.5.48,4.22,2.7,6.77,3-.28,2.14.13,3.73,2.53,4.54S124.79,149,126.75,146.32Z"/><path class="cls-3" d="M55.28,41.26C56.73,44,57,46.44,57.64,48.78c.52,2-.78,2.49-2.24,2.59-2,.14-1.07-1.49-1-2.24C54.62,46.7,53.64,44.12,55.28,41.26Z"/><path class="cls-4" d="M142.31,135.85c-26.63-9.53-46.15-27.53-60.93-51.19-4.14-6.64-6.9-13.87-9.57-21.17a12.12,12.12,0,0,0-15.23-7.57c-1,.32-2.72.39-2.54,1.85.72,6-.15,12.36,4.38,17.54,3.84,4.4,6.93,9.33,8.17,15.17a19.42,19.42,0,0,0,8.09,11.81,27.86,27.86,0,0,1,8.88,11,23.05,23.05,0,0,0,11.09,11.06c3.56,1.76,6.9,3.9,9.27,7.22a43.41,43.41,0,0,0,7.13,7.64c2,1.72,3.94,3.43,6.69,3.73a17.52,17.52,0,0,1,8.62,4,15.34,15.34,0,0,0,9.31,2c1.21,0,2.67.1,3-1.67a35.89,35.89,0,0,1-3.73-2.53,38.59,38.59,0,0,0-16.43-8.66,16.6,16.6,0,0,1-9.59-7.15,26.84,26.84,0,0,0-10.64-9.26,21.15,21.15,0,0,1-10.42-11.21c-1.49-3.44-3.33-6.71-6.51-8.85a20.85,20.85,0,0,1-9.1-13.88,24.3,24.3,0,0,0-5.31-11.16,19,19,0,0,1-4.52-8.91c-.24-1.4.14-2.62,1.69-3a2.14,2.14,0,0,1,2.77,1.91c.64,2.91,2.31,5.23,4.11,7.55,2.57,3.3,4.76,6.89,5.4,11.13a19.2,19.2,0,0,0,8,13,23,23,0,0,1,7.47,9.85,19,19,0,0,0,9.3,9.92,25.83,25.83,0,0,1,10.27,8.62A19.08,19.08,0,0,0,123.75,133c4.81,1,8.66,3.81,12.32,6.92a14.15,14.15,0,0,0,9.39,3.71c1.9,0,3.78.77,5.78.08-.81-1.32-1.5-2.36-2.34-3.58h0C147.35,137.71,144.84,136.75,142.31,135.85Z"/><path class="cls-5" d="M126.75,146.32c-.29,2.89-1.78,3.49-4.28,2.27-1.24-.61-2.54-1.09-3.8-1.66-2.52-1.16-3-2.7-.85-4.7A13.17,13.17,0,0,1,126.75,146.32Z"/></svg>