<svg id="Layer_1" data-name="Layer 1" xmlns="http://www.w3.org/2000/svg" viewBox="0 0 200 200"><defs><style>.cls-1{fill:#010101;}.cls-2{fill:#282726;}.cls-3{fill:#3c3a39;}.cls-4{fill:#ba83ba;}.cls-5{fill:#90ca73;}.cls-6{fill:#030204;}</style></defs><path class="cls-1" d="M35,120.81a15.73,15.73,0,0,0,.6-3.41c2-11.06,7.83-19.79,16.55-26.71A114.53,114.53,0,0,1,76.64,76.35c12.63-5.65,24.27-13,35.83-20.57.52-.33.65-.56.1-1-3.15-2.49-2.59-3.69-.39-6.48a25.41,25.41,0,0,1,34.64-4.74c1,.75,1.57.77,2.4-.2a10.91,10.91,0,0,1,5.84-3.81,9.57,9.57,0,0,1,9.1,2.48,2.49,2.49,0,0,1,.19,3.54,2.45,2.45,0,0,1-3.52.25c-1.52-1.22-3.11-1.87-5-1.17-1.66.6-2.63,2.08-3.84,3.23-.42.41.12.68.32.93a24.36,24.36,0,0,1,4.86,11.78q1.7,14.17-9.25,23.39c-.19.16-.39.32-.6.47-2.63,2-3.33,2-5.5-.48-.76-.86-1.06-.78-1.65.13-6.39,9.88-12.7,19.82-17.92,30.38-2.8,5.66-5.16,11.54-8.33,17a85.18,85.18,0,0,1-11.53,16.15,41.73,41.73,0,0,1-24.42,13,36.64,36.64,0,0,1-26.19-5.24,35.46,35.46,0,0,1-16-23.37,26.7,26.7,0,0,0-.76-4.16v-.51a6.86,6.86,0,0,0,.13-2.07,12,12,0,0,0-.13-2.75Z"/><path class="cls-2" d="M35,122.59c.53.89.13,1.87.24,2.8-.08.11-.16.1-.24,0Z"/><path class="cls-3" d="M35,125.38h.24c-.11.67.3,1.4-.24,2Z"/><path class="cls-4" d="M132.28,72.55a21.13,21.13,0,0,0,3.89-.26c.66-.06.93.08.88.78a9.75,9.75,0,0,0,.72,4.33,1.59,1.59,0,0,1-.34,1.62q-7.43,11.16-14.2,22.72c-4.15,7.14-7.46,14.69-11.08,22.1A87,87,0,0,1,100,142.7a37,37,0,0,1-22.55,12.91,31.87,31.87,0,0,1-22.36-4.12A29.25,29.25,0,0,1,40.9,131.44c-2.87-14.92,2.52-26.88,14-36.35a98.5,98.5,0,0,1,23-13.66c12.85-5.73,24.75-13.12,36.49-20.8a9.43,9.43,0,0,0,.84-.56c1.7-1.47,3.5-2.22,5.7-1.06a3.18,3.18,0,0,0,1.25.12c1.86.07,1.92.07,1.68,1.95a31.28,31.28,0,0,0,.3,8.59,2.5,2.5,0,0,0,2.35,2.4A30.42,30.42,0,0,0,132.28,72.55Z"/><path class="cls-5" d="M152.3,64.24a20.3,20.3,0,0,1-6.51,14.86c-.82.78-1.12.5-1.68-.27-2.09-2.89-2.29-6-1.69-9.42.4-2.21-1.2-3.58-3.35-3a24.35,24.35,0,0,1-9.26.91c-.67-.07-.89-.3-1-1a19.8,19.8,0,0,1,.78-8.63c.9-2.56-.52-4.62-3.62-3.92a10.58,10.58,0,0,1-8.87-1.89c-.71-.52-.7-.81-.11-1.43,5.49-5.71,12.16-7.88,19.81-6,7.87,1.93,12.81,7.12,14.92,15a10.22,10.22,0,0,1,.27,1.36A15,15,0,0,1,152.3,64.24Z"/><path class="cls-1" d="M89.81,139.57a2.24,2.24,0,0,1,.76-1.59c6.8-7.36,11.53-16,15.52-25.12a4,4,0,0,1,1.39-2,2.27,2.27,0,0,1,2.81.07,2.19,2.19,0,0,1,.95,2.63,78.41,78.41,0,0,1-4.93,10.6,78.67,78.67,0,0,1-11.85,17.08,2.58,2.58,0,0,1-2.9,1A2.46,2.46,0,0,1,89.81,139.57Z"/><path class="cls-6" d="M115.47,103.57a2.53,2.53,0,0,1-5.06.08A2.66,2.66,0,0,1,113,101,2.69,2.69,0,0,1,115.47,103.57Z"/></svg>