<svg id="Layer_1" data-name="Layer 1" xmlns="http://www.w3.org/2000/svg" viewBox="0 0 200 200"><defs><style>.cls-1{fill:#010101;}.cls-2{fill:#7ec242;}.cls-3{fill:#84c37b;}.cls-4{fill:#5da244;}.cls-5{fill:#65af45;}.cls-6{fill:#5b9e43;}.cls-7{fill:#487a39;}</style></defs><path class="cls-1" d="M114.44,35.34c.16-2.41,1.83-2.68,3.75-2.73,9.88-.28,18.26,7.55,18.93,17.93.13,2.05.63,2.94,2.73,3.69a20.81,20.81,0,0,1,9.38,32.07,5.93,5.93,0,0,0-1.2,5.64c1.79,7.3,0,13.81-5.17,19.31-3.18,3.4-6.5,6.65-9.59,10.15-5.58,6.31-6.57,14.34-8.71,21.93-2,7-3.7,14.11-5.56,21.15-.9,3.39-3.06,5.39-6.62,5.42-8.2.08-16.41.18-24.61,0-4.2-.1-6-2.07-7.15-6.56-2.74-10.59-5.4-21.2-8.32-31.73-2-7.31-7.13-12.71-12.5-17.65-7.07-6.51-10.25-14-7.52-23.48.43-1.49-.15-2.29-.88-3.26-9.17-12.29-4.89-27.77,9.27-33.14,1.77-.67,1.95-1.6,2.12-3.16,1.2-11,8.28-18,18.34-18.24,1.7-.05,3.6-.44,4.22,2.1.35,1.47,1.3.56,2,.09,10.3-6.66,16.52-6.51,26,.66,3.39,2.13,4.72,5.55,5.7,9.18.3,1.14.24,2.42,1.25,3.28,3.83,1.35,7.65,2.73,10.77,5.7a6.79,6.79,0,0,0,.16-5.2c-1.88-6.44-5.84-9.69-12.64-10.27C116.59,38,114.83,37.72,114.44,35.34Z"/><path class="cls-2" d="M114.44,35.34c.73,2.2,2.52,2,4.32,2A13.34,13.34,0,0,1,132,48.43c.22,1.17.73,2.64-.19,3.41-1.13,1-2.48-.09-3.62-.65a28.94,28.94,0,0,0-8.43-2.45c-1.07,0-1.13-.72-1.18-1.54a19.64,19.64,0,0,0-5.2-11.69Z"/><path class="cls-2" d="M119.82,108.64c-.78-2.48-2.3-3-4.57-1.82-1.66.9-3.36,1.7-5,2.6-1.36.74-2.26.94-2.24-1.14,0-4,0-8-.12-12a2.8,2.8,0,0,1,2.08-3c2.56-1,5.09-2.17,7.61-3.31,1.37-.62,2.66-1.38,1.86-3.25s-2.29-1.76-3.87-1.07c-1.93.84-3.88,1.65-5.79,2.51-1.6.72-2.27.17-2.3-1.51,0-3.1-.09-6.21-.19-9.32,0-1.59,1.15-2,2.25-2.5,2.73-1.22,5.48-2.39,8.21-3.61,1.42-.64,2.59-1.49,1.68-3.31-.84-1.66-2.23-1.62-3.7-1s-2.62,1.19-3.94,1.75c-4.53,1.92-4.47,1.91-4.58-3.19-.08-3.87.45-7.76-.58-11.6a6.79,6.79,0,0,0-5.22-5A6.54,6.54,0,0,0,94.75,51a7.9,7.9,0,0,0-2.09,5.48c0,1.63,0,3.27,0,5.36-2.73-1.27-5-2.35-7.3-3.38-1.42-.64-2.85-.91-3.71.82-.94,1.91.12,2.89,1.78,3.54.31.12.58.32.88.46,9.11,4.32,9.06,4.32,8.22,14.56-.17,2.09-1,2.15-2.53,1.46l-5.14-2.35c-1.53-.7-2.59-.09-3.27,1.29s.12,2.37,1.29,3c2.37,1.2,4.77,2.35,7.2,3.41a2.85,2.85,0,0,1,2,3c-.14,4-.18,8-.16,12,0,1.69-.56,1.94-1.94,1.15-1.63-1-3.25-1.91-4.95-2.7-1.29-.6-2.6-.67-3.39.93s-.11,2.48,1.27,3.22c2.33,1.27,4.59,2.69,7,3.89a3.24,3.24,0,0,1,2,3.41c-.27,7.87-.45,15.74-.68,23.61a12.89,12.89,0,0,1-.39,1.8c-2.13-3.22-2.92-6.4-4-9.41a56.46,56.46,0,0,0-12.16-20.75c-5.48-5.85-6.78-12.59-2.78-19.83,1.25-2.26.23-3.76-1-5.4-6.47-8.8-3.5-20.26,6.36-24.81a15.79,15.79,0,0,1,4.85-1C84.84,53.4,86,52.28,86,49.21,85.94,41,91.82,34.85,99.37,34.73c8.11-.13,14.2,5.51,14.22,13.81,0,3.67,1.49,5.06,4.75,5.29,11.1.79,18.87,15.1,10.5,25.73-1.43,1.82-2,3.4-.83,5.7,3.54,6.86,2.58,13.26-2.54,19l-4.4,5C120.39,109.58,120.13,109.06,119.82,108.64Z"/><path class="cls-3" d="M104.53,133.73c0,9.31-.12,18.63.07,27.93.06,2.9-.6,3.84-3.63,3.7-5.65-.27-5.71-.07-5.61-5.7q.89-46.74,1.81-93.48c.07-3.11.13-6.21.28-9.32.08-1.67.16-3.54,2.59-3.39,2.2.13,2.17,1.84,2.2,3.42C102.59,74.53,104.53,132.24,104.53,133.73Z"/><path class="cls-2" d="M139.17,59.3c10,4,12.85,17.51,5.23,25.45-2,2.12-2.51,3.75-1.46,6.66,2.06,5.65,1.55,11.71-2.93,15.81-9.52,8.7-16,19.39-22.19,30.45-.43.77-1,1.48-1.47,2.21-1.68-.72-.93-2-.55-3,3.74-10.15,8.14-19.84,16.27-27.49,6.74-6.34,7.84-14.22,3.84-22.52-.86-1.78-1.12-3.17.23-4.84,4.88-6,6.2-12.62,3.1-19.91C138.86,61.22,138.38,60.25,139.17,59.3Z"/><path class="cls-2" d="M82.5,138c-5-8.15-9.22-16.89-15.85-24-1.88-2-4-3.84-5.89-5.83-4.36-4.52-5.95-10-3.95-15.88,1.23-3.61.62-5.76-1.85-8.45-6.62-7.22-4-19.61,4.84-24,1.76.19,1,1.42.66,2.08-3.17,7.32-1.57,13.88,3,20a4.28,4.28,0,0,1,.44,4.69c-4.39,9.73-1.94,17.8,5.71,24.85,7.08,6.52,10.52,15.25,13.73,24C83.7,136.43,84.33,137.75,82.5,138Z"/><path class="cls-4" d="M139.17,59.3c.29.83.52,1.68.87,2.48,3.31,7.6,1.92,14.53-3.2,20.75-1.13,1.38-1.14,2.12-.33,3.61,4.34,8,3.24,17.38-3.39,23.42-8.7,7.92-13,18.26-17.09,28.8a1.3,1.3,0,0,0,.32,1.52q-3.31,5.66-6.64,11.31c-.16-3.9,1.55-7.13,2.8-10.47,3-7.95,5.36-16.16,9.35-23.71,2-3.86,5.06-7,7.8-10.3,5.39-6.51,6.8-13.72,3.59-21.67-.47-1.17-.77-2.14.07-3.37,4.89-7.15,5.1-14.61,1.21-22.27a10.7,10.7,0,0,1-.45-1.33A6.53,6.53,0,0,1,139.17,59.3Z"/><path class="cls-4" d="M82.5,138c1.14-.75.31-1.64,0-2.35-3.47-9.38-7.58-18.31-15.15-25.32-7.12-6.59-8.38-14.7-4.46-23.5a4.19,4.19,0,0,0-.58-5c-4.62-6.29-6.14-13.13-2.44-20.51.24-.49.51-1-.12-1.44,1.53-1.51,3.53-1.56,5.9-2.14-.73,2.84-2.13,4.93-2.63,7.38a20,20,0,0,0,2.75,15.57,4.89,4.89,0,0,1,.5,4.86C63.9,92.47,63.94,99.71,69,105.05c8.81,9.39,13.11,20.85,17.2,32.56q1.92,5.47,3.85,10.93c.21.71-.12.88-.75.73Z"/><path class="cls-2" d="M67.9,52c-.5-9.39,6-15.2,16.63-14.47-1.72,3.53-3.3,7-3.63,10.84,0,.14-.58.23-.88.34a24,24,0,0,0-8.75,2.77C70.29,52,69.18,52.93,67.9,52Z"/><path class="cls-5" d="M119.82,108.64l1.25.64c-5.69,7.56-8,16.69-11.89,26.05-1.08-4-.26-7.21-.8-10.27-1.23-7,.87-11.62,8.08-13.47A4.5,4.5,0,0,0,119.82,108.64Z"/><path class="cls-3" d="M118.56,147.62c-1.35,5.09-2.67,10.2-4,15.28a3.11,3.11,0,0,1-4.45,2.21c-1.83-.71-1.21-2.92-.61-4,2.57-4.71,5.46-9.24,8.23-13.83Z"/><path class="cls-3" d="M82.28,147.09c2.7,4.55,5.53,9,8,13.71.66,1.24,1.3,3.55-.62,4.32-2.16.86-3.75-.4-4.36-2.74-1.29-4.94-2.62-9.87-3.94-14.8Z"/><path class="cls-6" d="M119.71,48.74a17.27,17.27,0,0,1,8.89,1.77c2.85,1.54,3.53.72,3.35-2.08a3.17,3.17,0,0,1,.54,2.51c0,1.3.35,3-.79,3.72s-1.9-1.07-2.78-1.74C126.17,50.79,122.93,49.81,119.71,48.74Z"/><path class="cls-6" d="M67.9,52c3.91-1.57,7.64-3.8,12.11-3.29C76.24,50,72.52,51.23,69.5,54,68.33,55.12,68.13,54.91,67.9,52Z"/><path class="cls-7" d="M89.25,149.27l.74-.73c.57.69,1.16,1.54.26,2.17C89.92,150.94,89.43,149.9,89.25,149.27Z"/></svg>