<svg id="Layer_1" data-name="Layer 1" xmlns="http://www.w3.org/2000/svg" viewBox="0 0 200 200"><defs><style>.cls-1{fill:#010101;}.cls-2{fill:#c199c7;}.cls-3{fill:#9bce7b;}.cls-4{fill:#d0b1d4;}.cls-5{fill:#e2cae2;}.cls-6{fill:#e9d5e8;}.cls-7{fill:#ad82ba;}.cls-8{fill:#c2dfad;}.cls-9{fill:#c099c7;}.cls-10{fill:#677c5e;}</style></defs><path class="cls-1" d="M92.37,55.47c-1.65-.43-2-.83-2.11-2.82A50.85,50.85,0,0,0,87.17,37c-.29-.81-.61-1.61-.89-2.42a2.68,2.68,0,0,1,.87-3.28,2.79,2.79,0,0,1,3.51.24c2.63,2.32,5.22,4.67,7.83,7,.27.24.44.75.92.18,3.12-3.7,7.15-6.24,11.24-8.69h1.92c1.89,1.58,2.09,2.29,1.1,4.65a54,54,0,0,0-4,21c0,4.23,0,8.46,0,12.69,0,2.91,1.07,4.23,3.86,4.91A52.89,52.89,0,0,1,126,78c1.48.79,1.76,1.49,1.31,3.11-.28,1-1.09,1.26-2,1.25a4,4,0,0,1-1.8-.59,41.85,41.85,0,0,0-10.54-4c-4-.87-6.62-3-7.76-7-1.8-1-2.64-.59-2.65,1.4,0,2.72,0,5.44,0,8.16,0,1.88.1,2,2,2,.23,0,.46,0,.68,0a49.89,49.89,0,0,1,11.35,2.88,40.79,40.79,0,0,1,21.49,19.09,34.84,34.84,0,0,1,3.87,14,36.33,36.33,0,0,1-9.67,27.1,42.16,42.16,0,0,1-10.43,8.31,45.6,45.6,0,0,1-14.63,5.06c-.63.11-1.26.22-1.89.3-.22,0-.45,0-.68,0-1.91.1-2.08.27-2.09,2.15,0,1,0,2.08,0,3.12,0,.55.16,1,.86.92,1-.18,2,0,3-.23a50.42,50.42,0,0,0,16-4.74,49.27,49.27,0,0,0,10.74-7.21,44.51,44.51,0,0,0,10-12.65,41.27,41.27,0,0,0,4.87-17.61c.54-10.78-2.8-20.22-9.3-28.69a45.23,45.23,0,0,0-7.2-7.24c-1.42-1.17-1.54-2.29-.45-3.43a2.12,2.12,0,0,1,3.16-.14c9.88,8.12,16.28,18.33,17.9,31.12,2.24,17.78-4.19,32.26-17.85,43.47-11.42,9.37-24.78,13.05-39.46,11.73a52.46,52.46,0,0,1-34.94-17A45,45,0,0,1,47.78,127C45.54,108,52.89,93.05,68,81.72a51,51,0,0,1,18.42-8.5c2.95-.74,3.91-2,3.92-5,0-1.91,0-3.83,0-5.74a2.11,2.11,0,0,1,2-2.43,2,2,0,0,1,2.45,1.84,12,12,0,0,1,.08,2.32c0,.84.31,1.27,1.21,1.26,1.86,0,3.73,0,5.6,0,.91,0,1.2-.39,1.06-1.28-.62-3.91-1.06-7.86-1.84-11.74a20,20,0,0,0-5.71-10.69c-.75-.72-1.48-1.48-2.35-2.33a3,3,0,0,0,.2,1.23,66.53,66.53,0,0,1,1.8,11.73,3.29,3.29,0,0,1-.7,2.57C93.69,55.45,93.14,55.9,92.37,55.47Z"/><path class="cls-2" d="M105.47,158.81a49.51,49.51,0,0,0,12-3.29c12-5.37,20.29-14,23.31-27,2.58-11.13,0-21.3-7.08-30.19S117.38,84.6,106.25,83a5.81,5.81,0,0,1-.78-.24A2.25,2.25,0,0,1,105,81.1c0-2.9,0-5.81,0-8.72,0-.58-.19-1.32.64-1.61a8.17,8.17,0,0,0,6.37,6.32,49,49,0,0,1,12,4.56,2.4,2.4,0,0,0,3.27-.55l3.8,2.46c-.66,1.62-.51,2.23.8,3.3,8.75,7.15,14.35,16.22,16.09,27.4a41.27,41.27,0,0,1-8.65,32.86c-8,10.28-18.75,16.06-31.52,18.2-.4.06-.82,0-1.22.05-1.08.39-1.6-.11-1.56-1.13C105.14,162.43,104.59,160.56,105.47,158.81Z"/><path class="cls-3" d="M92.37,55.47c1.7-.45,2.19-1.07,2.09-2.8a57.23,57.23,0,0,0-2.07-13c-.11-.38-.18-.77-.3-1.3A23.35,23.35,0,0,1,101.63,54c.51,3.45,1,6.91,1.57,10.35.17,1.06.18,1.68-1.25,1.58-2.13-.14-4.27-.07-6.41,0-.86,0-1.13-.25-1.05-1.08a22.44,22.44,0,0,0,0-2.32c0-1.54-.57-2.15-2.14-2.47C92.36,58.51,92.37,57,92.37,55.47Z"/><path class="cls-2" d="M80.27,128.13a2.54,2.54,0,0,0,2-2.84,146.09,146.09,0,0,1,.55-18.83c.87-8.59,2.22-17.09,5.49-25.15a20.49,20.49,0,0,1,4.14-6.83A6.21,6.21,0,0,0,94.19,71c.14-1,.6-1.06,1.37-1,2.81.07,2.35-.35,2.35,2.26q0,46,0,92c0,1.71,0,1.7-1.7,1.5-1.31-.15-2.62-.27-3.93-.4a2.65,2.65,0,0,1-2.35-1.51,56.93,56.93,0,0,1-5-14.46,111.13,111.13,0,0,1-2.21-14.52c-.13-1.53-1-2.15-2.72-2.09C80.05,131.21,79.58,129.64,80.27,128.13Z"/><path class="cls-4" d="M80.27,128.13c.15,1.29-.17,2.6.19,3.88.12.43-.28.5-.43.75a2.25,2.25,0,0,0-1.37,2.66c1,9.4,2.46,18.69,6.26,27.44.1.24.18.48.27.74-3.55-.27-5.51-2.8-7.47-5.19-5.53-6.73-8.71-14.57-10.54-23a67.39,67.39,0,0,1-1.34-19.52c.91-12,4.23-23.26,12-32.81,1.91-2.34,3.83-4.82,7.38-5.07.12.09-.08.27-.17.47a81.4,81.4,0,0,0-5.58,21.2,150,150,0,0,0-1.35,25.59C78.14,127.27,78.37,127.58,80.27,128.13Z"/><path class="cls-4" d="M105.49,87.11A36.32,36.32,0,0,1,123,93.85c7.26,5.17,12.18,12,13.93,20.84a30.72,30.72,0,0,1-6.4,25.93c-6,7.65-14.06,12-23.54,13.75a9.74,9.74,0,0,1-1.22.08c-.77,0-.7-.63-.72-1.07-.1-2-.08-4.09,0-6.14a1.3,1.3,0,0,1,.67-1.25c7.8-1.51,14.34-5.12,19-11.65,7-9.83,5.55-22.57-3.4-31a30.75,30.75,0,0,0-15.61-7.76,1.17,1.17,0,0,1-.65-1.11c-.08-2.13-.07-4.26,0-6.4A1.16,1.16,0,0,1,105.49,87.11Z"/><path class="cls-2" d="M71,84.7Q51.78,121,71.1,156.84c-10-6.11-19.9-19.71-19.66-36.22C51.66,105.23,58.76,93.48,71,84.7Z"/><path class="cls-5" d="M105.47,132.33a17.22,17.22,0,0,0,6.37-3.53c5.51-5.08,5.1-12.32-.94-16.81a20.39,20.39,0,0,0-5.43-2.74A1.68,1.68,0,0,1,105,108c0-2.25-.06-4.5,0-6.75,0-.61-.08-1.48,1-1.28,9.61,1.67,20.5,10.58,18.73,23.53-.81,5.95-4.12,10.49-8.93,13.94a24.16,24.16,0,0,1-10.43,4.35,1.8,1.8,0,0,1-.42-1.39c0-2.22,0-4.45,0-6.67A2.14,2.14,0,0,1,105.47,132.33Z"/><path class="cls-6" d="M105.84,113.9a9,9,0,0,1,5.15,4.39,5.76,5.76,0,0,1-1.29,6.86,9,9,0,0,1-3.69,2.47c-.8.28-.81-.36-.91-.81A7.49,7.49,0,0,1,105,125c0-3.15,0-6.29,0-9.43C105.05,115,104.77,114.09,105.84,113.9Z"/><path class="cls-5" d="M105.84,113.9c-.5.29-.38.79-.38,1.22q0,5.66,0,11.31c0,.45-.21,1.06.55,1.19a10,10,0,0,1-3,1.07c-.71.2-.93-.12-.93-.85q0-7,0-14.06c0-.79.23-1.12,1-.86A9.86,9.86,0,0,1,105.84,113.9Z"/><path class="cls-7" d="M105.68,70.77c-.3.29-.22.67-.22,1,0,3.66,0,7.32,0,11-3.42,0-3.42,0-3.42-3.37,0-2.67.06-5.35,0-8,0-1.18.37-1.55,1.47-1.4a8.68,8.68,0,0,0,1.35,0C105.39,70,105.75,70.14,105.68,70.77Z"/><path class="cls-8" d="M105.21,51a22.44,22.44,0,0,0-3-7.53,1.36,1.36,0,0,1,.2-2,32.79,32.79,0,0,1,6.22-5.39,57.91,57.91,0,0,0-2.92,14.61C105.59,50.93,105.53,51.21,105.21,51Z"/><path class="cls-4" d="M106.09,100c-.82.12-.63.76-.63,1.27,0,2.67,0,5.34,0,8a8.06,8.06,0,0,0-1.84-.39c-1.41,0-1.66-.65-1.6-1.91a61.85,61.85,0,0,0,0-6.24c-.07-1.21.37-1.46,1.44-1.28A11.73,11.73,0,0,1,106.09,100Z"/><path class="cls-4" d="M105.47,132.33c0,3.15,0,6.31,0,9.46a16.58,16.58,0,0,0-2,.36c-1.34.41-1.46-.25-1.43-1.35.07-2.27,0-4.54,0-6.81,0-.79.22-1.14,1-1.2A17.84,17.84,0,0,0,105.47,132.33Z"/><path class="cls-9" d="M105.49,87.11q0,3.65,0,7.31a2.12,2.12,0,0,0,.27,1.16l-1.33-.2c-2.33-.29-2.33-.29-2.33-2.69,0-1.64,0-3.27,0-4.91,0-.78.1-1.23,1-1C103.87,87,104.73,86.69,105.49,87.11Z"/><path class="cls-9" d="M105.73,146c-.58,1.8-.21,3.65-.24,5.48,0,1-.39,2.05.31,3-1,.44-2.14.2-3.2.42-.65.14-.53-.46-.53-.83,0-2.22,0-4.43,0-6.65,0-.68.19-1,.88-1C103.86,146.26,104.8,146.11,105.73,146Z"/><path class="cls-7" d="M105.47,158.81c0,1.76,0,3.52,0,5.28,0,.91.21,1.37,1.18,1.28-1.26.47-2.6.19-3.88.48-.56.13-.69-.23-.69-.7,0-1.81,0-3.62,0-5.43,0-.53.24-.68.72-.73A12.87,12.87,0,0,1,105.47,158.81Z"/><path class="cls-10" d="M105.21,51l.48-.27.06,1.26A.9.9,0,0,1,105.21,51Z"/></svg>