<svg id="Layer_1" data-name="Layer 1" xmlns="http://www.w3.org/2000/svg" viewBox="0 0 200 200"><defs><style>.cls-1{fill:#010101;}.cls-2{fill:#4a6755;}.cls-3{fill:#7ac475;}.cls-4{fill:#79c475;}</style></defs><path class="cls-1" d="M106.3,25a12.18,12.18,0,0,1,6.56,4,10.47,10.47,0,0,1,2,9.36c-.5,2-1,4-1.43,6.13a36.63,36.63,0,0,0,3.69-4.75A10.82,10.82,0,0,1,128,34.46,10.67,10.67,0,0,1,137,43.35c.81,4.57-1.28,8.08-4.54,11a17.3,17.3,0,0,1-14,4.25c-2.29-.25-4.59-.29-6.88-.48-.6-.05-.84.14-1,.72-2,7.64-4.15,15.27-5.75,23-.4,2-.76,4-1.23,6.44,2.45-3.3,4.9-6,6.89-9.15,2.73-4.25,6.61-6.3,11.66-5.7a11,11,0,0,1,9.39,7.17c2,5,.73,9.37-2.79,13.21-4.68,5.11-10.58,6.86-17.35,6.2-2.81-.28-5.65-.39-8.47-.66-1.08-.11-1,.63-1,1.19-.54,6.72-1.06,13.44-.94,20.19,0,2.73,0,5.46,0,8.64,1.59-1.26,2.81-2.25,4.06-3.22,3.12-2.41,6-5.23,9.67-6.79,9-3.8,17.38-2.66,24.93,3.48,5.28,4.31,5.06,11.95-.22,16.3a23.51,23.51,0,0,1-14.28,5.63,2.09,2.09,0,0,0-1.38.31,25.57,25.57,0,0,1,3.2,7.57,21.69,21.69,0,0,1,0,10.44c-1.64,6.35-7.91,9.46-14.1,7.16a24.84,24.84,0,0,1-8.11-5c.27,2.26.48,4.19.72,6.12.1.87.21,1.74.37,2.6.09.45,0,.63-.46.68-.63.07-1.26.19-1.89.25-2.84.24-2.74.22-3.1-2.62-.87-6.86-1.51-13.74-2.74-20.56-.63-3.54-.72-7.18-1.06-10.78-.09-1-.18-1.94-.28-3-3,1.38-6,2.65-8.85,4a25.25,25.25,0,0,1-13.86,2.74,21.92,21.92,0,0,1-14.91-7.48c-3.67-4.29-2.7-10.91,1.87-14.58a23.4,23.4,0,0,1,29.82-.09l5.52,4.4a208.46,208.46,0,0,1,.91-27.11,4.13,4.13,0,0,0-2.13.41c-3.77,1-7.43,2.44-11.3,2.9-7.41.9-13.59-1.6-18.15-7.53-3.35-4.35-2.09-10.15,2.55-13.06a19.75,19.75,0,0,1,23.9,2.62c2,2,4,4.2,6.15,6.56,1.47-10.42,4-20.35,6.65-30.27.08-.46.59-1-.26-1.29-3,.64-5.83,1.64-8.85,1.88C89,62.53,83.69,60.28,80,55A10.66,10.66,0,0,1,92.73,39.32c.27.1.55.17.92.28a37.4,37.4,0,0,1,.26-5.51A10.66,10.66,0,0,1,102,25.28a1.67,1.67,0,0,0,.45-.28Z"/><path class="cls-2" d="M104.26,60.15c.16-.22.52-.33.59-.14a1.3,1.3,0,0,1-.33,1.43C104.32,61,104.91,60.46,104.26,60.15Z"/><path class="cls-3" d="M87.18,126.75a14.61,14.61,0,0,1-4-.31,60.18,60.18,0,0,0-14.44.66c-.8.12-1,.48-.83,1.18,0,.05,0,.09,0,.14.44,1.23,0,3.06,1.07,3.63.89.49,2.43-.2,3.68-.35A49.69,49.69,0,0,1,93,133.39c.08,0,.14.12.37.35-6.14,2.33-11.55,6.48-18.52,6a18.33,18.33,0,0,1-11.56-5,5.2,5.2,0,0,1,0-7.69A18.46,18.46,0,0,1,87,126.35C87.1,126.39,87.1,126.52,87.18,126.75Z"/><path class="cls-3" d="M112.43,126.79c7.27-5.87,17-5.89,23.86-.21a5.31,5.31,0,0,1,.3,8.3c-5.53,5.12-14.61,6.56-21.16,2.52a46.54,46.54,0,0,0-6.81-3c-.57-.23-1.13-.49-2-.87a51.73,51.73,0,0,1,8-1.76,51.21,51.21,0,0,1,16.89.3c1.16.21,1.72-.12,1.73-1.31a3.18,3.18,0,0,1,.06-.43c.66-3.18.65-3.12-2.6-3.54a57.59,57.59,0,0,0-16.48,0A13.61,13.61,0,0,1,112.43,126.79Z"/><path class="cls-3" d="M113,142.17a12.56,12.56,0,0,1,6,4.94,17.93,17.93,0,0,1,3.22,14.13c-.57,3.4-3.46,5.56-6.69,4.5-6.31-2.06-10.75-6.24-12.24-12.82-.85-3.79-.94-7.74-1.35-11.62-.14-1.36-.21-2.72-.32-4.1.79-.12,1.08.48,1.47.87a44.48,44.48,0,0,1,12.62,23.61c.17.85.39,1.08,1.31,1,4.09-.54,4.12-.5,3.12-4.48A50.22,50.22,0,0,0,113,142.17Z"/><path class="cls-3" d="M103.22,55.17c-4.78,1-9.23,3-14,1a12.17,12.17,0,0,1-4.29-3A5.61,5.61,0,0,1,85,45.35c1.91-2,5.47-2.4,7.44-.45C95.93,48.33,99.55,51.6,103.22,55.17Z"/><path class="cls-3" d="M113.31,53.11c2.12-2.75,4.13-5.31,6.09-7.9.86-1.12,1.63-2.3,2.46-3.44a5.58,5.58,0,0,1,7.41-1.54,5.66,5.66,0,0,1,2.12,7.38c-1.87,3.74-6.77,6.36-11.23,6Z"/><path class="cls-3" d="M107.08,50.5c-3.33-3.36-7.52-6-8.27-11.26a11.23,11.23,0,0,1,.46-5.61,5.55,5.55,0,0,1,6.64-3.4A5.43,5.43,0,0,1,110,36.56a116.6,116.6,0,0,0-2.69,13.59C107.34,50.23,107.24,50.3,107.08,50.5Z"/><path class="cls-3" d="M92.71,95.56c-3.76.9-7,2.3-10.59,2.6a14.14,14.14,0,0,1-12.75-5.47,3.73,3.73,0,0,1,.81-5.63c4.56-3.25,12.33-3,16.61.57.18.15.44.26.33.68-1,.28-1.84-.25-2.76-.38a63.28,63.28,0,0,0-7.27-.75c-1,0-1.33.18-1.33,1.25,0,3.78,0,3.77,3.78,4A45.94,45.94,0,0,1,92.71,95.56Z"/><path class="cls-4" d="M108.29,90.48c1.33-1.72,2.68-3.43,4-5.16,1-1.29,1.87-2.62,2.81-3.93a6.69,6.69,0,0,1,11.42,7c-2.36,4.52-9.26,7.74-14.2,6.4a24.76,24.76,0,0,0,6-3.55A23,23,0,0,0,123,86c-1.2-.79-2.43-1.57-3.61-2.41-.75-.53-.93.13-1.23.51a18.11,18.11,0,0,1-9,6.39A.78.78,0,0,1,108.29,90.48Z"/></svg>