<svg id="Layer_1" data-name="Layer 1" xmlns="http://www.w3.org/2000/svg" viewBox="0 0 200 200"><defs><style>.cls-1{fill:#171717;}.cls-2{fill:#0c8e45;}.cls-3{fill:#0c743b;}.cls-4{fill:#0caf4c;}.cls-5{fill:#7ec242;}.cls-6{fill:#5d863b;}.cls-7{fill:#0f8843;}.cls-8{fill:#162018;}</style></defs><path class="cls-1" d="M81.6,32c6.38,3,11,8.36,14.69,14.38.75,1.22,1.78,1.18,3,1.2,5.92.11,11.27,1.52,14.73,6.92,1.08,1.68,2,.16,2.84-.24C125.66,50,134.2,50.6,141.58,57c3.83,3.3,6.89,7.58,10.46,11.29,3.2,3.32,3.53,8.21,3.7,12.79.42,11.06-1.81,21.82-3.89,32.57-2.15,11.15-4.21,22.36-8.9,32.81-3.53,7.91-8.31,14.7-17.28,17.2a8.63,8.63,0,0,1-1.21.32c-4.73.67-9.8.14-13.46,4.37-.71.82-2.29.89-3.47,1.3a4.09,4.09,0,0,1-3.58-.06c-1.9-.86-3.84-1.66-5.71-2.58a13.07,13.07,0,0,0-8.53-1.46,11.57,11.57,0,0,1-9.79-2.39A3.63,3.63,0,0,0,77.76,162c-6-.26-10.22-3.62-13.74-8-7.18-9-11.07-19.5-13.61-30.52-3-13-6.37-26-6.2-39.52.15-11.23,5.25-17.86,16-21,.85-.25,1.87-.2,2.44-1.21,3.41-6,9.43-8,15.45-10,1.79-.59,3.62-1,5.44-1.52-2.13-4.32-3.61-5.06-8.28-4.2-2.58.48-4.28-.78-5.33-3-1.69-3.53-2.39-8.95-1-11C71.33,28.56,77.68,30.21,81.6,32Z"/><path class="cls-2" d="M69,96.76c.64-6.3,1.61-12.53,4.51-18.26C77.28,71,83.89,69,90.77,73.8c5.15,3.63,9.85,4.06,15.56,1.55,7.39-3.24,14.08-.67,19.45,6.55,6.16,8.29,6.44,17.7,5.62,27.46-1,12-6.63,22.52-10.83,33.49-1.68,4.42-3.11,9-4.68,13.41a21.62,21.62,0,0,1-3.2,6.45c-6-2.57-10.22-7.33-14.43-12-8.32-9.3-14.08-20.22-19.67-31.25-.75-3.09,0-6.28-.62-9.38-.19-1,.17-2.15-1-2.84-1.17.25-.87,1.58-1.57,2.17-1.58.35-1.61-1.06-2-1.88A91.93,91.93,0,0,1,69,96.76Z"/><path class="cls-3" d="M152.63,83c-.63,13.08-3.06,24.83-5.45,36.59-2,10-4.28,20-9.16,29.14-3.71,6.93-9.1,11.49-17.13,12.49-2.9.36-3,.1-2.25-2.58,3.61-12.05,9.36-23.3,13.22-35.22,3.23-10,4.78-20.29,2.43-30.82a30.64,30.64,0,0,0-11.68-18.57c-1.92-1.42-1.58-1.95.3-2.81a55.77,55.77,0,0,1,19.18-4.88c4.69-.37,8.67,3.64,9.68,9.54C152.23,78.6,152.81,81.32,152.63,83Z"/><path class="cls-4" d="M66.42,88.5a198.07,198.07,0,0,0-1.26,28.4c.17,14,2.16,27.5,9.34,39.82a4.93,4.93,0,0,1,.24,1.43c-5.31-2.34-8.62-6.35-11.4-10.84a81.18,81.18,0,0,1-9.76-24.86c-2.7-11.8-5.4-23.61-6.12-35.76a29.49,29.49,0,0,1,.7-7.85A15,15,0,0,1,59.33,66.78c1.22-.43,1.86.21,2,1.28,1,6.59,3.37,12.79,5,19.19A2.41,2.41,0,0,1,66.42,88.5Z"/><path class="cls-4" d="M69,96.76c2.81,3.41,3.59,7.79,5.6,11.59.19.36.38.72.56,1.08,1.89,2.65.63,5.67,1,8.5.22,1.68-.49,3.56,1,5.06,1.57-.73.75-2.63,1.88-3.47,1.45.61,1.71,2.08,2.29,3.27,6,12.41,13.31,23.89,23.39,33.41,2.49,2.36,5.33,4.35,8,6.51-2.93,3.43-6.89,4.56-10.67,2.39a22.17,22.17,0,0,0-14.28-2.9c-3.42.44-5.84-1.37-7.85-3.86-5.63-6.93-8.16-15.16-9.72-23.73C67.89,122.06,68.5,109.4,69,96.76Z"/><path class="cls-5" d="M101.78,67c.35,1,.69,2.1,2,2s1.75-1,1.76-2.19c0-.62.08-1.08.82-.82,2.34.83,4.57-.23,6.86-.31a3.89,3.89,0,0,1-1.93,4.89,20.75,20.75,0,0,0-7.85,2.2c-3.41,1.62-6.46,1.43-9.38-1a9.1,9.1,0,0,0-2.39-1.51c-1.78-.69-2.11-1.47-1.33-3.43,2.86-7.27-2.54-20.7-9.52-24.19-1.52-.77-3.26-1.5-4.83-.57-2.44,1.47-3.23,0-3.76-1.86a39.17,39.17,0,0,1-.75-4.33c1.08-1.72,2.44-.71,3.61-.26a26.56,26.56,0,0,1,10.25,7.13A54.8,54.8,0,0,1,95.75,58.82C97.07,62.13,98.7,65,101.78,67Z"/><path class="cls-2" d="M118,70.08A8.26,8.26,0,0,1,119.61,64c.54-.83,1-1.68.37-2.62-.78-1.13-1.78-.68-2.83-.37s-2.12,1-3.87.57c3.72-4.7,8.59-6.33,14-6.59,6.27-.3,12.87,3.39,14.72,7.91C133.65,63.81,125.61,65.63,118,70.08Z"/><path class="cls-2" d="M87.86,61.77c-.06,4.85-1.36,5.72-5.51,6.48a10,10,0,0,1-8.81-2.34,16.52,16.52,0,0,0-5.72-2.59c-2-.58-1.5-1.43-.53-2.32a21.2,21.2,0,0,1,3.79-2.82C75,56,79.26,54.87,83.53,53.7c1.46-.4,2.45,0,2.89,1.52A31.22,31.22,0,0,1,87.86,61.77Z"/><path class="cls-3" d="M66.42,88.5a85.12,85.12,0,0,1-5.73-19.25c-.19-1,.07-2.17-1.36-2.47,5.37-1.91,9.84.16,14.11,3.15.75.53,1.23,1.08.39,2C69.63,76.69,68.17,82.66,66.42,88.5Z"/><path class="cls-6" d="M101.78,67c-3-.38-4.57-2.38-5.54-5A60.12,60.12,0,0,0,86,44.69,29.13,29.13,0,0,0,74.22,36c-.83-.33-1.76-.81-2.7-.14,0-2,1.32-2.12,2.8-2,4.65.28,8.47,2.47,11.73,5.55C94.07,47,98.86,56.45,101.78,67Z"/><path class="cls-7" d="M99.3,51.11c4.51-.25,8.06.9,10.84,4,.77.86,2.34,1.93,1.21,3.09-1.34,1.36-1.3,4.13-3.77,4.19a4.4,4.4,0,0,1-4.37-2.55C102,57.09,100.73,54.32,99.3,51.11Z"/><path class="cls-6" d="M111.33,70.57l1.93-4.89c.55,0,1.34-.7,1.6.08A3.47,3.47,0,0,1,111.33,70.57Z"/><path class="cls-8" d="M79,119.52c0,.83-.1,1.67-.09,2.51,0,1.2.09,2.5-1.52,2.6s-2-1.31-2-2.59c-.09-2.31,0-4.63,0-6.94,0-1.89-.09-3.78-.14-5.67a10.74,10.74,0,0,0,.12-1.26c0-1.21.07-2.52,1.7-2.45s1.8,1.5,1.83,2.79C78.89,112.18,78.93,115.85,79,119.52Z"/></svg>