<svg id="Layer_1" data-name="Layer 1" xmlns="http://www.w3.org/2000/svg" viewBox="0 0 200 200"><defs><style>.cls-1{fill:#010101;}.cls-2{fill:#ffd176;}.cls-3{fill:#040302;}.cls-4{fill:#191307;}.cls-5{fill:#171207;}.cls-6{fill:#151106;}.cls-7{fill:#110d05;}.cls-8{fill:#161107;}.cls-9{fill:#120e05;}</style></defs><path class="cls-1" d="M170,88.24c.19,20.32-12.73,33-32.43,35.34-.31,0-.62.07-.93.07-3,0-4.52,1-5.84,4.22-3.74,9.21-10.8,15.74-19.89,19.64-21.66,9.32-43.07,8-63.41-3.58-16.92-9.67-21.79-27.46-13.62-45.17,6.72-14.56,17.74-23.13,33.81-25,1.19-.14,1.87-.45,2.2-1.64,1.78-6.57,6.4-10.81,12-14.07,9-5.23,19-7.55,29.16-9.33,4.59-.81,9.24-1.3,13.86-2,23.3-3.54,45.54,14.35,45.08,41.16Z"/><path class="cls-2" d="M84.31,148c-13.63-.31-25.07-2.72-35.26-9.58-11.73-7.89-16-18.53-12-32,4.22-14.3,13.17-24.1,28.49-26.78a33.24,33.24,0,0,1,20,2.92c.56.26,1.11.55,1.66.84,1.76.92,3.29.74,4.17-1.16s-.31-2.91-1.76-3.7a34.51,34.51,0,0,0-12-4.18c-2.76-.36-2.65-1.51-1.46-3.4a26,26,0,0,1,11.53-9.66c9.9-4.6,20.46-6.64,31.17-8.18,6.7-1,13.32-2,20.08-.13a33.9,33.9,0,0,1,25.31,31.12,44.63,44.63,0,0,1-.81,13c-2.93,12.49-13.23,19.1-25.13,20.9-2,.3-4.29,1.08-5.78.32-1.19-.61-1.32-3.23-2-4.91-3.56-8.57-10.21-14.5-17.33-20-1.64-1.27-3.38-2.41-5.11-3.56-1.39-.93-2.82-1-3.88.43s-.72,2.94.77,4a139.28,139.28,0,0,1,11,8.69,37.69,37.69,0,0,1,8.65,10.94c2.79,5.54,2.57,10.9-1.11,16.11-7.62,10.82-18.65,15.39-31.19,17.25A50.29,50.29,0,0,1,84.31,148Z"/><path class="cls-3" d="M158.7,82.05a2.8,2.8,0,0,1-5.45,1,24.28,24.28,0,0,1-.64-2.71A22.61,22.61,0,0,0,128.7,62.91c-2,.18-4,0-4.21-2.48s1.61-2.89,3.75-3.07A28.39,28.39,0,0,1,158.59,81.3Z"/><path class="cls-3" d="M72.23,84.74A26.63,26.63,0,0,1,83.6,87.67c1.87.89,3.46,2.08,2.34,4.27-1,2-2.85,1.5-4.61.7-9-4.13-17.54-3.33-25.38,3a21,21,0,0,0-4.26,4.94c-1.17,1.79-2.64,3.25-4.83,1.71S46,99,47,97.35A28.35,28.35,0,0,1,72.23,84.74Z"/><path class="cls-4" d="M90.67,111.42c-.38,1.83-1.17,2.94-2.94,2.86A2.54,2.54,0,0,1,85,111.53a2.49,2.49,0,0,1,2.76-2.66C89.48,108.9,90.25,110.14,90.67,111.42Z"/><path class="cls-5" d="M118.11,77.81a2.65,2.65,0,0,1-2.7,2.78,2.51,2.51,0,0,1-2.88-2.54c-.12-1.81,1.09-2.68,2.64-2.81S117.79,76.18,118.11,77.81Z"/><path class="cls-6" d="M78,133.07c-.36,1.88-1.3,3-3,2.85a2.56,2.56,0,0,1-2.55-2.9,2.46,2.46,0,0,1,2.82-2.57C77,130.55,77.65,131.8,78,133.07Z"/><path class="cls-5" d="M96.1,88.06a2.61,2.61,0,0,1-2.63-2.84,2.47,2.47,0,0,1,2.6-2.56,2.54,2.54,0,0,1,2.78,2.7C98.84,87.1,97.85,88,96.1,88.06Z"/><path class="cls-7" d="M140.86,89c1.62.25,2.83,1,2.84,2.72a2.76,2.76,0,0,1-5.52.09C138.14,90,139.38,89.3,140.86,89Z"/><path class="cls-8" d="M61.41,114.64c-.06,1.69-.85,2.69-2.64,2.7a2.59,2.59,0,0,1-2.77-2.7,2.71,2.71,0,1,1,5.41,0Z"/><path class="cls-9" d="M107.68,129.46c-.08,1.23-.9,2.21-2.68,2.21a2.57,2.57,0,0,1-2.73-2.73,2.53,2.53,0,0,1,2.71-2.73C106.55,126.25,107.65,127.22,107.68,129.46Z"/></svg>