<svg id="Layer_1" data-name="Layer 1" xmlns="http://www.w3.org/2000/svg" viewBox="0 0 200 200"><defs><style>.cls-1{fill:#010101;}.cls-2{fill:#5d5a59;}.cls-3{fill:#555251;}.cls-4{fill:#393737;}.cls-5{fill:#f47c4a;}.cls-6{fill:#59bc72;}.cls-7{fill:#020101;}.cls-8{fill:#050201;}</style></defs><path class="cls-1" d="M170,120.5c-.63,1.52-.51,3.16-.79,4.75a52.16,52.16,0,0,1-11,24.84c-4.25,5.14-9.31,9.16-16,10.66-5.76,1.28-10.9-.12-15.57-3.49a1.6,1.6,0,0,0-2.31,0,18.8,18.8,0,0,1-23.15,0,1.53,1.53,0,0,0-2.2,0c-7.27,5.4-16.06,5.35-23.38-.09-.59-.44-1-.68-1.74-.12-7.81,5.91-16.52,5.34-24.2.16-8.31-5.6-13.29-13.68-16.5-22.94a56.26,56.26,0,0,1-2.59-26.07,52.35,52.35,0,0,1,11.28-27C46,76,51,72,57.66,70.46c5.85-1.37,11.07,0,15.83,3.47a1.52,1.52,0,0,0,2.2,0A18.82,18.82,0,0,1,86.5,70c.87,0,1-.48,1.22-1.09Q92.36,55.31,97,41.75a5.41,5.41,0,0,1,1.08-2.17,2.71,2.71,0,0,1,3.51-.34c3.45,1.93,6.87,3.9,10.29,5.87a3,3,0,0,1,1.5,3.25q-.9,6.63-1.78,13.24c-.34,2.53-.62,5.06-1,7.58-.11.7.1.84.77.8a19.11,19.11,0,0,1,13.31,4.25c.71.54,1.11.21,1.64-.18A19.13,19.13,0,0,1,138.63,70c5.64.21,10.45,2.57,14.65,6.17,7.92,6.78,12.48,15.58,15,25.52a46,46,0,0,1,1.42,8.73c0,.21,0,.46.26.56v.27a2.73,2.73,0,0,0,0,1.91v3.56c-.29.44-.08.93-.14,1.39s-.16,1.1.14,1.62Z"/><path class="cls-2" d="M170,113.11a1.53,1.53,0,0,1,0-1.91Z"/><path class="cls-3" d="M170,119.68c-.55-.47-.17-1.08-.25-1.63.07-.13.16-.14.25,0Z"/><path class="cls-4" d="M170,118h-.25c0-.47-.19-1,.25-1.38Z"/><path class="cls-5" d="M97.27,115.64q0,17.37,0,34.72a2,2,0,0,1-.86,1.81c-6.75,5.19-13.91,4.63-20.15-1.7-4.35-4.41-7-9.84-8.76-15.67a65.38,65.38,0,0,1-2.29-27.53,53.69,53.69,0,0,1,6.06-19.78,25.7,25.7,0,0,1,8.81-9.87A13.72,13.72,0,0,1,96.87,79.3c.51.47.4,1,.4,1.49Q97.29,98.22,97.27,115.64Z"/><path class="cls-5" d="M102.74,115.59q0-17.36,0-34.7a2.28,2.28,0,0,1,1-2c5.84-4.6,12.65-4.46,18.3.31s8.73,11.29,10.78,18.25a64.76,64.76,0,0,1,2,26.46,53.38,53.38,0,0,1-6,19.77c-2.65,4.78-6,9-11.23,11.07-5.41,2.2-10.1.52-14.42-2.92-.54-.43-.33-1-.34-1.51Q102.73,132.94,102.74,115.59Z"/><path class="cls-5" d="M35.49,116.76c.36-11.09,2.36-19,6.54-26.27,3.08-5.36,6.95-10,12.51-13,5.15-2.77,10.21-2.75,15.19.52.81.53.77.88.24,1.55C64.06,87,61.22,95.74,59.91,105a71.45,71.45,0,0,0,2.18,31.17,44.5,44.5,0,0,0,7.79,15.33c.6.75.68,1.14-.24,1.75-5.29,3.47-11.43,3.21-17.19-.77a36.35,36.35,0,0,1-11.7-14.15A49.34,49.34,0,0,1,35.49,116.76Z"/><path class="cls-5" d="M164.52,117a46.42,46.42,0,0,1-12.4,31.61,21.82,21.82,0,0,1-10.87,6.72c-4.13,1-7.79,0-11.23-2.33-.79-.52-.32-.89,0-1.29a41.94,41.94,0,0,0,5.69-9.58,62.19,62.19,0,0,0,4.74-18.67,73.75,73.75,0,0,0-.52-19.46c-1.47-8.84-4.23-17.19-9.87-24.35-.61-.78-.47-1.12.32-1.63,5.32-3.51,11.4-3.25,17.19.76,5.47,3.79,9.23,9,12.06,14.89C162.73,100.11,164.24,107,164.52,117Z"/><path class="cls-6" d="M107.56,49.92l-1.65,12.59c-.33,2.52-.68,5-1,7.56-.14,1.14-.4,2.12-1.65,2.5a1.59,1.59,0,0,0-.71.39c-1.73,1.84-3.37,1.63-5.17,0a10.41,10.41,0,0,0-3.75-1.87c-.67-.22-.7-.5-.5-1.08q4.07-11.8,8.09-23.63c.21-.61.36-.82,1-.43,1.59,1,3.22,1.87,4.84,2.78A.86.86,0,0,1,107.56,49.92Z"/><path class="cls-7" d="M158.25,115.59a51.38,51.38,0,0,1-.77,7.73c-.35,1.77-1.67,2.78-3.15,2.48a2.84,2.84,0,0,1-2.25-3.49,40.42,40.42,0,0,0,0-13.44,2.78,2.78,0,0,1,2.09-3.45c1.66-.32,2.93.57,3.3,2.43A51.38,51.38,0,0,1,158.25,115.59Z"/><path class="cls-8" d="M155.24,99.74A2.62,2.62,0,1,1,152.68,97,2.59,2.59,0,0,1,155.24,99.74Z"/></svg>