<svg id="Layer_1" data-name="Layer 1" xmlns="http://www.w3.org/2000/svg" viewBox="0 0 200 200"><defs><style>.cls-1{fill:#010101;}.cls-2{fill:#393737;}.cls-3{fill:#84c37b;}.cls-4{fill:#040403;}.cls-5{fill:#010201;}.cls-6{fill:#ffd176;}</style></defs><path class="cls-1" d="M127.25,138.8c.71,2.14.27,3.19-1.68,4.22a43.64,43.64,0,0,1-14.35,4.27,18.73,18.73,0,0,0-10.2,5.19,93.56,93.56,0,0,1-9.76,8.45,45.93,45.93,0,0,1-22.34,8.39c-5.72.5-11.6.85-17.1-1.75A22.2,22.2,0,0,1,46,163.81c-1.6-1.51-1.42-3.67.51-4.63a10.9,10.9,0,0,0,5.29-6.26,74,74,0,0,0,2.64-8.67c2.48-9.82,9-15.86,18.09-19.42,3.06-1.2,6.2-2.21,9.32-3.25a10.56,10.56,0,0,0,6.79-6.35,97.41,97.41,0,0,1,4.43-10.17,31.39,31.39,0,0,1,19.55-15.9c.52-.15,1-.39,1.55-.49,4.14-.84,6.38-3.56,7.62-7.43,1-3.22,2-6.46,3.32-9.59,3.9-9.38,10.67-15.38,20.67-17.64a46.64,46.64,0,0,0,7.74-2.43,10.44,10.44,0,0,0,5.56-4.93c1-2,3.15-2.24,4.7-.57a22.75,22.75,0,0,1,5.62,12.69c.05.33-.15.74.28,1v5.45a2,2,0,0,0,0,1.63v.82a34.84,34.84,0,0,0-1,5.37A48.73,48.73,0,0,1,156,97.28c-2,2.14-4,4.32-5.86,6.61-2,2.45-2.46,5.38-3,8.31A46.31,46.31,0,0,1,143,125.6c-1,1.88-2.07,2.33-4.1,1.66a2.49,2.49,0,0,1-1.39-3.46c2.51-5,3.48-10.39,4.49-15.79a20.5,20.5,0,0,1,5.16-9.74c2.32-2.67,4.85-5.15,7.09-7.89a43.27,43.27,0,0,0,9.43-22.82,28.67,28.67,0,0,0-.57-10.8q-.16-.59-.36-1.17c-.82-2.45-.86-2.45-2.86-.94a27.54,27.54,0,0,1-9,4l-6.66,2c-5.77,1.71-9.7,5.5-12.43,10.7a50.86,50.86,0,0,0-3.38,8.6,34.87,34.87,0,0,1-3,7.43,13.47,13.47,0,0,1-7.73,6.28c-2,.65-4.06,1.3-6.06,2-6.08,2.28-10.35,6.56-13.38,12.18a88.06,88.06,0,0,0-4.07,9.35,16.26,16.26,0,0,1-9.64,9.58c-3.51,1.38-7.19,2.24-10.65,3.75a29.56,29.56,0,0,0-8.22,5.24,18.58,18.58,0,0,0-4.72,7.54c-1.21,3.28-1.94,6.71-3.07,10A22.68,22.68,0,0,1,54,160.68c-.83,1-.76,1.17.51,1.69a20,20,0,0,0,7.56,1.55c11.79,0,22.14-3.74,30.81-11.9,2.21-2.07,4.43-4.14,6.8-6.06a20,20,0,0,1,8.67-4c2.35-.5,4.73-.88,7.07-1.41a27.43,27.43,0,0,0,6.17-2.11,13.8,13.8,0,0,1,2.39-1A2.49,2.49,0,0,1,127.25,138.8Z"/><path class="cls-2" d="M169.72,66.81a1.19,1.19,0,0,1,0-1.63Z"/><path class="cls-3" d="M127.25,138.8c-1.57-1.46-2.33-1.62-4.24-.62a36.82,36.82,0,0,1-12.43,3.63c-5.9.75-10.45,3.79-14.53,7.8-4.29,4.21-8.84,8.06-14.39,10.53C74.52,163.32,67.08,165,59.23,164a16,16,0,0,1-6.69-2.24c4-3.84,5.2-8.89,6.61-13.85,1-3.35,1.84-6.74,3.89-9.62,2.84-4,6.86-6.52,11.35-8.28,3-1.19,6.11-2.21,9.19-3.22A16.07,16.07,0,0,0,94,116.69c1-2.57,2-5.12,3.2-7.61,3.54-7.49,9.17-12.72,17.28-14.69,7.13-1.73,11.17-6.13,13.07-13a59.2,59.2,0,0,1,3.31-9.15,22,22,0,0,1,15.87-12.78c1.71-.39,3.4-.91,5.07-1.43A34.79,34.79,0,0,0,157.12,56a20.31,20.31,0,0,0,4.67-3.38A19.14,19.14,0,0,1,164.24,62a43.25,43.25,0,0,1-11.81,31c-1.55,1.66-3,3.4-4.59,5a23.23,23.23,0,0,0-6.19,13.42,36.86,36.86,0,0,1-3.57,11.75c-.9,1.74-.67,2.69.81,4.07q-1.63,2.16-3.25,4.33c-.38.17-.7-.06-1-.19a2.29,2.29,0,0,0-2.7.59,2.23,2.23,0,0,0-.46,2.6c.14.31.39.63.13,1A41.32,41.32,0,0,1,127.25,138.8Z"/><path class="cls-1" d="M88.16,46.39c11.55,0,18.32,12.24,12.48,22.58-4.13,7.32-12.88,10.57-20.27,7.54-8.78-3.59-11.67-14.74-5.94-22.88A16.65,16.65,0,0,1,88.16,46.39Z"/><path class="cls-1" d="M46.05,114.88a15.55,15.55,0,0,1-15.56-13.09c-1-6.07,1.56-10.88,6.54-14.36a16.78,16.78,0,0,1,22,2.89c6.95,8.42,3,20.59-7.76,23.85A20.66,20.66,0,0,1,46.05,114.88Z"/><path class="cls-1" d="M30.31,46.89A16.77,16.77,0,0,1,46.82,30.33,14.44,14.44,0,0,1,61.58,45,17,17,0,0,1,44.89,61.61,14.5,14.5,0,0,1,30.31,46.89Z"/><path class="cls-4" d="M131.6,135.59a3,3,0,0,1-.28-3.4c.93-1.53,2.51-1.75,4.32-.6,1.07,1.57,1.07,2.77,0,3.9S133.26,136.62,131.6,135.59Z"/><path class="cls-5" d="M99.51,119.9a13.83,13.83,0,0,1,3.86-9.47,2.66,2.66,0,0,1,4-.29c1.17,1.08,1.17,2.59,0,4-3.17,3.8-3.16,7.93,0,11.65a2.77,2.77,0,0,1,0,4c-1.2,1.09-2.7,1-4-.33A14,14,0,0,1,99.51,119.9Z"/><path class="cls-5" d="M68.58,157.51a2.48,2.48,0,0,1-1.9-.79,10.65,10.65,0,0,1-.14-14.81,2.73,2.73,0,0,1,4.13,3.57c-2.24,3-2.23,4.61,0,7.64A2.56,2.56,0,0,1,71,156,2.52,2.52,0,0,1,68.58,157.51Z"/><path class="cls-5" d="M139.61,87.25a2.57,2.57,0,0,1-1.86-.8,9.58,9.58,0,0,1,0-13.42,2.79,2.79,0,0,1,3.8-.14,2.7,2.7,0,0,1,.29,3.68c-1.85,2.58-1.86,3.75,0,6.31a2.56,2.56,0,0,1,.29,2.92A2.52,2.52,0,0,1,139.61,87.25Z"/><path class="cls-6" d="M78.64,57.44c.86.78,1.77,1.46,3,1.11a2.67,2.67,0,0,0,1.52-4.22c-.83-1-.25-1.19.49-1.52a9.61,9.61,0,0,1,11.61,2.38,10.18,10.18,0,0,1-.18,12.27,10.94,10.94,0,0,1-11.75,4.27C76.87,69.78,75.34,62.16,78.64,57.44Z"/><path class="cls-6" d="M46.63,109.34c-6.07,0-10.82-4.23-10.87-9.53a9.94,9.94,0,0,1,7.15-9.23c.48-.12.67-.11.77.49.32,1.92,1.21,2.74,2.78,2.72s2.38-.85,2.63-2.68c.1-.74.4-.66.89-.49,3.68,1.31,6.26,3.73,6.92,7.65s-.89,6.83-4,9.06A10.27,10.27,0,0,1,46.63,109.34Z"/><path class="cls-6" d="M54.43,50.44c-1.75-1.32-3.11-1.44-4.24-.4s-1.13,2.47.21,4.44a9.79,9.79,0,0,1-10.72,0,9.33,9.33,0,0,1-3.59-10.2c1.57-6.11,8.15-9.92,13.86-8C56.21,38.35,57.62,45.86,54.43,50.44Z"/></svg>