<svg id="Layer_1" data-name="Layer 1" xmlns="http://www.w3.org/2000/svg" viewBox="0 0 200 200"><defs><style>.cls-1{fill:#ed2024;}.cls-2{fill:#010101;}.cls-3{fill:#d62127;}.cls-4{fill:#020202;}.cls-5{fill:#0c8e45;}.cls-6{fill:#190200;}.cls-7{fill:#1a0200;}.cls-8{fill:#160200;}.cls-9{fill:#110201;}.cls-10{fill:#0f0201;}.cls-11{fill:#100200;}.cls-12{fill:#0d0201;}.cls-13{fill:#0caf4c;}.cls-14{fill:#6bc394;}.cls-15{fill:#0bac5b;}</style></defs><path class="cls-1" d="M162.66,123.23l-.06,4.1c-2,2.78-1.78,6.11-2.2,9.25a79.74,79.74,0,0,1-4.51,17.75c-.81,2.11-1.5,4.35-3.61,5.66-2.47,1.16-5.09,1.07-7.68.79A117.81,117.81,0,0,1,95.72,143.9a14.57,14.57,0,0,1-2.11-2.59,4.55,4.55,0,0,0-4.74-2c-4.4-1.46-7.15-5-9.84-8.35-9-11.1-11.72-23.59-7.22-37.39a15.62,15.62,0,0,1,4.86-5.2c9.13-6.56,18.47-12.84,27.39-19.67,11-8.4,28.22-7.48,39,1a40,40,0,0,1,14.85,23.45,136.59,136.59,0,0,1,3.64,26.22C161.59,120.79,162.37,121.92,162.66,123.23Z"/><path class="cls-2" d="M162.66,123.23c-1.88-.62-1.9-2.1-2-3.76a122.49,122.49,0,0,0-4.84-30.63c-4.25-14.22-19.64-27.65-38.11-25.09a22.07,22.07,0,0,0-9.61,3.38c-10.75,7.48-21.4,15.1-32.06,22.72a13.91,13.91,0,0,0-3.66,3.79c-4.24,6.93-7.25,14.19-6.66,22.58.12,1.65.46,4-2.51,3.88-2.16,0-2.39-1.64-2.54-3.22a33.42,33.42,0,0,1,1-11.35c.42-1.65.24-2.54-1.86-2-2.46.58-4.93-.17-7.4-.33-1.67-.11-2-1.24-2-2.57-.24-2.37,1.49-2.41,3-2.32,1.84.11,3.69.21,5.54.28a5.35,5.35,0,0,0,5.55-3.08,23.39,23.39,0,0,1,2.68-3.76,11,11,0,0,1,2.18-2.31,29.89,29.89,0,0,1-12.34-5.83,3.36,3.36,0,0,0-3.73-.52,39.38,39.38,0,0,0-7.89,4.42A26.12,26.12,0,0,0,41.55,91c-1.25,1.21-.91,2.14.48,2.92a19.41,19.41,0,0,1,3.78,2.12c.94.83,2.35,1.69.81,3.2a2.69,2.69,0,0,1-4,.69,3.42,3.42,0,0,0-.82-.44c-7.51-2.7-8.93-8.09-2-13.91a56.68,56.68,0,0,1,5.79-4.22c1.92-1.22,4-2.19,6.21-3.39-1.19-1.6-2.47-3.16-3.59-4.83-2.84-4.24-1.55-8,3.28-9.83,7.86-2.9,12.2-3,25.48-.7L69.44,52.17c-.92-1.28-2.09-2.68-.36-4s2.77.24,3.68,1.47c2.48,3.34,4.91,6.7,7.57,10.36.71-3.08.67-6,1.37-8.88A39.76,39.76,0,0,1,89.54,36c3-3.81,6.94-3.75,10,0,1.38,1.68,2.56,3.51,3.91,5.38A39.42,39.42,0,0,1,117,30.94c4.68-2.29,8.56-.29,9.31,4.84.21,1.44.4,2.88.65,4.31a2.38,2.38,0,0,1-1.84,3.08c-1.9.73-2.29-.76-2.85-2a5.65,5.65,0,0,1-.34-1.2c-1.14-5.31-1.14-5.31-6-2.69a34.29,34.29,0,0,0-5.64,3.82c-2.77,2.39-4.62,5-2.8,8.9.87,1.88.81,3.92-1.77,4.78-2.4.19-3.29-1.42-3.83-3.32a37,37,0,0,0-5.17-10.94c-1.64-2.38-2.46-2.42-4.17-.17-.94,1.24-1.76,2.57-2.6,3.89-5.37,8.65-5.55,17.43-.68,26.33.63,1.15,1.17,2.71,3,1.42,2.51-1.5,4.76-3.38,7.21-5,2-1.31,2.5-3.46,2.91-5.65.35-1.9.85-3.75,3.34-3.82a2.9,2.9,0,0,1,2.44,2.09c.19,1.32,1,1.38,2,1a62.39,62.39,0,0,1,6.58-2c1.94-.5,2.83-2,3.5-3.69.77-1.94,1-4.06,1.76-6,.5-1.21.88-2.95,3-2,1.82.84,2.19,2.14,1.64,4.06-.77,2.69-1.2,5.47-2.81,8.17a40.59,40.59,0,0,1,20,7c8.75,6.08,14.18,14.37,16.87,24.59a124.62,124.62,0,0,1,4,28.88C164.76,121.37,164.72,122.84,162.66,123.23Z"/><path class="cls-3" d="M63.25,120.1c2-.44,1.76-2,1.69-3.48-.3-6.12.46-12,3.47-17.5,1.1-2,2.13-4.05,4-5.48-2.72,9.32-2.71,18.57,1.4,27.48,3.38,7.33,8.19,13.57,15.42,17.62.87,1.27.47,2.95,1.47,4.24,1.88,2.4,3,2.5,4.94.17a129.13,129.13,0,0,0,38.6,15.18c5.82,1.2,11.73,2.65,17.77,1.1-1.06,3.62-6,6.8-11.11,7a59.17,59.17,0,0,1-16.4-2,139.4,139.4,0,0,1-39.62-16.66c-8.19-4.95-14.52-11.46-18.21-20.36-.58-1.39-1.68-2.37-2.43-3.61Z"/><path class="cls-4" d="M64.25,123.81c1.59.06,2.33,1,2.86,2.42,3.21,8.61,9,15.08,16.73,19.9C97,154.33,111,160.59,126.15,164a85.23,85.23,0,0,0,12,1.73A15.32,15.32,0,0,0,152,159.43c3.89-4.48,4.68-10.21,6.13-15.62a71.53,71.53,0,0,0,2-12.8c.13-1.61.13-3.45,2.44-3.68,1.75.32,2,1.57,1.86,3-.9,9-2.48,17.93-5.91,26.34-3.94,9.69-13.69,14.5-24.07,13-19.74-2.79-37.56-10.28-54.18-21a43.23,43.23,0,0,1-17-20.6C62.61,126.44,62.54,125,64.25,123.81Z"/><path class="cls-5" d="M115.61,36.69a7.74,7.74,0,0,1,.73-.55c5.23-3,5.48-2.8,6.29,3.22.22,1.62.36,3.4,2.5,3.81,0,1.26-.07,2.51-.11,3.77-1.53.12-2,1.22-2.37,2.48-.28,1.1-.45,2.22-.74,3.31-1.07,4-2.53,7.3-7.59,7.49-2.16.08-4.29,1.35-6.45,2.09-.6-.72-.25-1.55-.24-2.34,5.83-5.5,7.48-12.61,7.82-20.23C115.5,38.72,115.06,37.68,115.61,36.69Z"/><path class="cls-5" d="M46.62,99.26c.38-1.52-.54-2.29-1.71-2.91s-2.21-1.11-3.3-1.7c-2.72-1.48-2.83-2.1-.61-4.28,1.25-1.21,2.32-2.65,4-3.41,6.92,3.27,14.05,5.54,21.87,4.5a1.44,1.44,0,0,1,1.14.38,6.25,6.25,0,0,0-1.06,1.49c-2.36,6.71-7.59,6.78-13.28,5.73-1.49-.27-2.65,0-3.22,1.53Z"/><path class="cls-6" d="M95.65,143.15c-.09,1.09.12,2.37-1.27,2.83a3,3,0,0,1-3-1.06c-1.71-1.68-3.19-3.52-2.11-6.18,2.17-1.34,3.43.23,4.64,1.58A18,18,0,0,1,95.65,143.15Z"/><path class="cls-7" d="M118.68,138.1c2.53.08,5.55,4.09,5,6.19-.35,1.28-1.25,1.55-2.41,1.31-1.91-.39-4.38-3.68-4.23-5.66C117.11,138.72,117.69,138,118.68,138.1Z"/><path class="cls-6" d="M146.93,80.48c.07,1.17-.27,2.1-1.57,2.28-1.94.27-5-3.19-5-5.62,0-1.1.38-2.07,1.74-2.13C143.94,74.93,146.83,78.2,146.93,80.48Z"/><path class="cls-6" d="M115.87,78.63c2.23.14,5.16,4.18,4.54,6.27A1.79,1.79,0,0,1,118,86.18c-1.82-.43-4.34-3.92-4.16-5.76A1.75,1.75,0,0,1,115.87,78.63Z"/><path class="cls-6" d="M93.07,100a1.69,1.69,0,0,1-1.74,1.87c-2,.1-5-3.34-4.93-5.68a1.71,1.71,0,0,1,1.93-1.9C90.31,94.31,93.05,97.45,93.07,100Z"/><path class="cls-8" d="M140.33,149.46c2.25,0,5.4,4.37,4.66,6.48a1.65,1.65,0,0,1-2.18,1.17c-2.1-.45-4.57-3.79-4.25-5.9C138.71,150.21,139.15,149.44,140.33,149.46Z"/><path class="cls-9" d="M154.12,131.37c0,1.2-.49,2-1.83,1.95-2,0-4.69-3.21-4.71-5.51,0-1.35.51-2.21,2-2.13C151.5,125.79,154.16,129.15,154.12,131.37Z"/><path class="cls-10" d="M115.16,114.26c0,1.14-.2,2.06-1.6,2.13-2,.1-4.69-3-4.79-5.34-.06-1.28.19-2.3,1.77-2.3C112.49,108.75,115.15,111.93,115.16,114.26Z"/><path class="cls-11" d="M83.9,122.43c0,1.13-.25,2-1.67,2.06-2,0-4.69-3-4.76-5.38,0-1.28.26-2.26,1.84-2.21C81.28,117,83.9,120.09,83.9,122.43Z"/><path class="cls-12" d="M140.15,108.14c0,1.18-.32,2-1.72,2-2,0-4.65-3.09-4.68-5.44,0-1.29.31-2.27,1.87-2.19C137.58,102.61,140.19,105.87,140.15,108.14Z"/><path class="cls-13" d="M89.43,43.72c.84-1.29,1.65-2.61,2.53-3.87,2.34-3.31,3.25-3.25,5.5.26a37.66,37.66,0,0,1,5.22,11.22c.39,1.53.92,3.05,2.95,3a2.65,2.65,0,0,1,0,3.78A2.66,2.66,0,0,0,103.27,61c-.08,3.85-2.09,6.3-5.29,8.12-1.89,1.08-3.63,2.41-5.43,3.63-.61-.81-.24-1.62.1-2.35,4.15-9.17,1.86-17.64-2.78-25.86C89.72,44.28,89.58,44,89.43,43.72Z"/><path class="cls-13" d="M85.07,78.12c-2.67,2-5.29,4-8,5.9s-6,.78-8.69,0c-7.17-2.13-12.46-6.9-16.64-13-1.27-1.84-.89-3.07,1.32-3.7,1.69-.48,3.36-1,5-1.56a27.91,27.91,0,0,1,4.14,3.77c5.25,4.93,11.16,8.27,18.7,7.8C82.33,77.23,83.87,77,85.07,78.12Z"/><path class="cls-14" d="M89.43,43.72c2.61.68,2.77,3.2,3.58,5.07,3.49,8,3.79,16.06-.46,24-1.23,1.58-2.14,1.43-3.27-.26A26.05,26.05,0,0,1,89.43,43.72Z"/><path class="cls-14" d="M85.07,78.12c-6.06.21-12.07.26-17.41-3.33-3.7-2.49-7.33-5-9.57-9,11-2.43,20.26.3,27.6,9C86.87,76.16,87.39,77.38,85.07,78.12Z"/><path class="cls-15" d="M105.62,58.15c0-1.26,0-2.52,0-3.78,2.37-1.18,1.82-3.18.94-4.77-1.87-3.4-.24-5.63,2.06-7.82a26.69,26.69,0,0,1,7-5.09c1.7,5.27,0,10.23-1.57,15.13a23.68,23.68,0,0,1-4.36,7.49c-.55.68-1.09,1.3-2.05.66C107.48,58.79,106.48,58.55,105.62,58.15Z"/><path class="cls-15" d="M68,91.84c-8.05,2-15.35-.37-22.46-3.83-.29-.14-.37-.69-.55-1.05,1.18-.83,2.32-1.73,3.55-2.49,3.75-2.3,7.25-3.89,11.34,0,2.74,2.59,6.59,3.77,10.52,4.33A8.32,8.32,0,0,1,68,91.84Z"/></svg>