<svg id="Layer_1" data-name="Layer 1" xmlns="http://www.w3.org/2000/svg" viewBox="0 0 200 200"><defs><style>.cls-1{fill:#010101;}.cls-2{fill:#dfe0e0;}.cls-3{fill:#404141;}.cls-4{fill:#6bc394;}.cls-5{fill:#87cca6;}.cls-6{fill:#0c8e45;}.cls-7{fill:#84c37b;}.cls-8{fill:#6bc092;}.cls-9{fill:#8fcfac;}.cls-10{fill:#759f88;}.cls-11{fill:#62987a;}</style></defs><path class="cls-1" d="M39.91,104.93v-9.3c2-6.9,3-13.79,1.25-21-1-4.3.62-8.43,3-12a27.87,27.87,0,0,0,4.87-14.74c.38-8.92,5.11-14.29,13.77-16.37,7.18-1.72,14-1.27,19.58,4.27.91.89,1.42.63,2.28-.1,8.87-7.47,20-7.58,29-.26,1.1.9,1.82,1,2.85,0,7.23-7.06,19.07-5.3,25.69-1.28a15,15,0,0,1,6.67,9.34c.88,3.33.73,6.76,1.15,10.14A3.2,3.2,0,0,1,148.28,57c-2.21.57-3.28-.69-3.88-2.53a19.88,19.88,0,0,1-.82-5.49c-.31-7.44-4-11.23-11.44-11.91-6.4-.93-10.27.52-12.63,4.66a7.41,7.41,0,0,0-.8,5.94,18.91,18.91,0,0,0,4.16,8.18c5.28,5.64,7.9,12.19,7,20-.47,4.2.91,7.94,3.09,11.42a19.11,19.11,0,0,1,2.22,16.3c-1.17,4-1.39,7.83.71,11.67,1.38,2.52.72,5.07-1.11,7.18a8.5,8.5,0,0,0-2.22,7.95c.47,2.05-.56,3.78-1.8,5.38s-2.44,3.39-1.13,5.58c4,2.22,4.37,2.15,6.82-1.5a10.71,10.71,0,0,1,1.53-1.9,5.21,5.21,0,0,1,1.14-.83c4.28-.73,7-2.63,6.69-7.63-.11-1.92,1.46-3.6,3.1-4.79,1.93-1.4,2.55-3,1.59-5.34-1.46-3.51-.73-7,.9-10.17a18.36,18.36,0,0,0,.32-17.21c-2-4.36-1.89-9.12-.87-13.67,1.1-4.94.62-9.38-2.17-13.6-1.23-1.87-1.79-3.81.63-5.32,2-.61,3.17.55,4.16,1.91,3.14,4.32,5,9.08,3.84,14.49-1.31,6.12-1.28,12.06,1.33,17.85,2.4,5.32,1.49,10.52-.82,15.55-1.67,3.63-2.31,7.13-.74,11,1.25,3.1-.23,5.74-2.58,7.66a7.59,7.59,0,0,0-3,6.38c0,4.29-1.51,6.15-5.75,7.21a9.14,9.14,0,0,0-5.94,4c-2,3.14-4.86,4.38-8.51,3.1-2.21-.78-3.15.13-3.15,2.25,0,3.82-.5,7.6-.72,11.4-.29,4.7-1.56,6.45-5.86,7.87h-4.33a40.3,40.3,0,0,0-11.5-.32H92.92a39.58,39.58,0,0,0-11.55.32H77c-4.19-1.38-5.48-3.1-5.83-7.58-.29-3.7-.68-7.38-.71-11.11,0-3.12-.62-3.53-3.47-2.73a6.64,6.64,0,0,1-8-3,9.45,9.45,0,0,0-6.11-4.26c-4.36-1-5.76-2.93-5.77-7.5A6.84,6.84,0,0,0,44.34,128c-2.92-2.35-4.1-5.38-2.51-9.07a8.57,8.57,0,0,0-.12-7.21C40.71,109.56,40.59,107.18,39.91,104.93Z"/><path class="cls-2" d="M81.37,170c3.6-.9,7.2-2,10.92-.5.44,0,.52.17.21.5Z"/><path class="cls-2" d="M106.33,169.51c3.72-1.55,7.32-.41,10.93.49H106.12C105.81,169.67,105.89,169.51,106.33,169.51Z"/><path class="cls-3" d="M106.33,169.51a.44.44,0,0,1-.21.49H92.5a.47.47,0,0,1-.21-.5Z"/><path class="cls-4" d="M92.47,117.45c-1.82.36-2.38,1.49-2.48,3.31-.33,5.75-1.08,11.49-1.22,17.24-.09,3.82-3,2.73-4.89,3.52-2.09.88-3.08-.33-3.64-2.09a8.54,8.54,0,0,0-6.66-6.13c-1.89-.44-3-1.31-2.31-3.74,1-3.58.33-6.93-2.84-9.44-1.2-1-2-2.22-.84-3.75,2.86-3.9,2.54-8.17,1.17-12.38a17.33,17.33,0,0,1,2.08-15.86,19.61,19.61,0,0,0,3.1-13.55A17,17,0,0,1,79,60c3.42-3.48,5.21-7.74,6.23-12.49,2.13-9.93,5.7-12.48,16-11.87,3.44.72,4.56,3.57,5.69,6.34a30,30,0,0,1,1.27,4.78,25.14,25.14,0,0,0,6,12,18.2,18.2,0,0,1,5.19,14.7,23.25,23.25,0,0,0,3.39,14.5,19.25,19.25,0,0,1,1.77,16.38c-1.11,3.57-1.18,7.07.74,10.47a5.62,5.62,0,0,1-.91,6.89,9.36,9.36,0,0,0-2.25,8.6,4,4,0,0,1-2.27,4.67,25.83,25.83,0,0,0-8.15,5.85c-1.89.32-1.62-1.22-1.7-2.19-.92-11.27-1.78-22.55-2.65-33.82-.44-5.64-.82-11.28-1.3-16.92-.32-3.62-2.57-5.26-6.94-5.23-4.09,0-6.24,1.74-6.55,5.34-.61,7.27-1.16,14.54-1.77,21.82-.16,1.79.32,3,2.29,3.32A4,4,0,0,1,92.47,117.45Z"/><path class="cls-5" d="M52.17,133.24c.31-3.93-.81-6.63-3.77-8.44-2-1.25-2.77-2.84-1.47-5.12,1.87-3.31,1.18-6.75-.43-9.77-3.37-6.33-3.37-12.47-.35-18.89,2.22-4.72,1.5-9.73.38-14.57A13.59,13.59,0,0,1,48.68,65a30.81,30.81,0,0,0,5.54-17.67c.14-5.6,3.28-9.21,8.68-10.57,3.28-.82,6.59-1.47,10-.72,5.87,1.28,9.12,6.35,7.81,12.13-.93,4.08-3.27,7.3-6,10.27A18.94,18.94,0,0,0,69.7,73.78a19.34,19.34,0,0,1-2.9,13,19.64,19.64,0,0,0-2.27,17.71c1.18,3.63,1.43,7.12-1,10.61-1.84,2.68-.79,5.47,1.45,7.5a6.34,6.34,0,0,1,2,6.9A5.8,5.8,0,0,0,69.28,136c2.38,2,1.46,5.45-1.18,6.81-3,1.55-4.91,1.05-6.33-2a7,7,0,0,0-6.19-4C52.87,136.56,51.5,135.56,52.17,133.24Z"/><path class="cls-5" d="M129.51,142.19c-1.82-.77-2.14-4.67-.26-6.11a5.91,5.91,0,0,0,2.28-6.78,6.22,6.22,0,0,1,1.75-6.38c3.36-3.52,3.46-5.22,1-9.34a8.15,8.15,0,0,1-.62-7.12C136.2,98.94,135.57,92,131,85.3c-2.24-3.29-2.55-7.13-2.16-11a19.6,19.6,0,0,0-5.28-16.17,27.6,27.6,0,0,1-5.88-10.3c-1.68-5,3.15-10.89,7.4-11.71a14,14,0,0,1,7,.08c5.09,1.59,6.64,5.9,6.85,10.38A34.62,34.62,0,0,0,144.53,64a16.3,16.3,0,0,1,2.29,12.75,25.74,25.74,0,0,0,1.41,16.66c2.34,5.19,1.48,10.31-.72,15.29-1.69,3.8-2.64,7.53-.83,11.62,1,2.22.16,4.3-1.75,5.77a8.79,8.79,0,0,0-3.88,8c.13,1.77-1,2.8-2.07,3.91l-.56.44C135.36,139.46,132.59,141.19,129.51,142.19Z"/><path class="cls-6" d="M111.7,140.78c1.07-3.21,3.41-5,6.54-5.95,2.58-.78,3.57-2.33,2.89-5.14a8.37,8.37,0,0,1,2.42-8.43c2.11-2,2.21-4.27.68-6.7a10,10,0,0,1-.89-8.9,21.34,21.34,0,0,0-2.24-19.18,16.37,16.37,0,0,1-2.63-10.58c.71-6.78-.77-12.76-5.89-17.74-3.74-3.65-4.79-8.73-5.89-13.66-.81-3.61-2.33-6.78-5.51-8.91,6,0,10.35,2.84,11.44,8.65a35.3,35.3,0,0,0,9,18.26,11,11,0,0,1,3,8.81,29.84,29.84,0,0,0,4.74,20c2.39,3.65,1.83,7.74.72,11.68-1.33,4.69-2.18,9.24,1,13.59,1,1.37.2,2.63-.91,3.5-3.33,2.58-3.82,6-2.85,9.74.55,2.12-.38,3-2,3.35a9,9,0,0,0-7.11,6.52c-.55,1.79-1.71,2.44-3.56,1.83C113.72,141.19,112.7,141,111.7,140.78Z"/><path class="cls-6" d="M139,138a7.29,7.29,0,0,0,1.2-4.35c-.43-3.55,1.17-6.19,4-8.08,2.07-1.38,2.62-3.15,1.54-5.29-1.91-3.79-1.16-7.37.56-10.94,2.84-5.88,3.18-11.73.26-17.75-2.32-4.78-1.86-9.94-.68-14.82,1.25-5.23-.29-9.58-2.92-13.74a28.51,28.51,0,0,1-4.74-15.36,13.29,13.29,0,0,0-6.11-11.47c7.88.4,12.06,4.61,12.39,12.4.08,1.74.43,3.47.56,5.22s1.05,2.8,3,2.69c.5,1.11,1,2.22,1.52,3.33-1.41,1.27-1.35,2.59-.25,4,3.34,4.45,3.82,9.37,2.48,14.65a19.73,19.73,0,0,0,1,13.6,17.71,17.71,0,0,1-.23,16.56c-2,3.89-2.89,8-.53,12.09.91,1.6.08,2.62-1.1,3.35-3.67,2.25-5.07,5.52-4.56,9.69.23,1.86-.67,2.52-2.4,2.79A45,45,0,0,0,139,138Z"/><path class="cls-7" d="M96.3,96.27c.18-2.57.43-5.13.49-7.7,0-2,1.41-1.62,2.6-1.67s2.32-.07,2.46,1.82c1,12.94,2,25.88,3.05,38.82q1.27,16.35,2.53,32.68c.38,5.13,0,5.51-5.05,5.44-.41,0-.82-.07-1.23-.11a4.21,4.21,0,0,1-1-3.15c-.75-16.15-2.34-32.24-3.61-48.36-.33-4.3-.42-8.64-.32-13A10.7,10.7,0,0,0,96.3,96.27Z"/><path class="cls-7" d="M96.83,100.6c.39,10.43,1.5,20.81,2.35,31.21.47,5.81.85,11.64,1.31,17.45.43,5.42,1,10.84.66,16.29-2.36,0-4.72.13-7.08.09s-3.29-1.26-3.1-3.55c1.08-13.41,2.13-26.82,3.25-40.23.15-1.83.28-3.51-1.75-4.41.12-1.46-.22-3,.61-4.35,1.42-.35,1.87-1.29,1.94-2.71.15-3.27.44-6.53.68-9.8A.72.72,0,0,1,96.83,100.6Z"/><path class="cls-7" d="M75.73,139.67c3,6.54,3,6.56,10.52,5.59,1.64-.21,1.85.33,1.71,1.87-.48,5.22-.77,10.47-1.13,15.71,0,.59.23,1.57-.37,1.69-2.78.57-5.58,1.71-8.44,1-2-.54-1.63-2.62-1.74-4.2-.41-6.17-.77-12.34-1.15-18.5C75,141.68,74.16,140.45,75.73,139.67Z"/><path class="cls-7" d="M123.49,142.79c-.37,6-.68,12-1.12,18.05-.36,5.06-1.43,5.72-6.37,4.25-.91-1.05-.75-2.28-.6-3.52.49-3.88.08-7.82.8-11.69.25-1.39-.74-2.55-.78-3.89,4.69.51,6.06-2.93,7.47-6.31C124.45,140.45,123.64,141.68,123.49,142.79Z"/><path class="cls-7" d="M115.42,146c2.63.86,2.06,3.11,1.73,4.82-.91,4.74-.09,9.58-1.15,14.28-3.29.53-4.43-.76-4.35-4.17a111.89,111.89,0,0,0-.82-12.64c-.31-3.47-.39-3.46,3.08-2.58C114.41,145.83,114.92,145.9,115.42,146Z"/><path class="cls-8" d="M129.51,142.19c2.49-2.4,5.34-3.94,8.91-3.75-.4.57-.82,1.13-1.21,1.71C134.31,144.39,134.31,144.39,129.51,142.19Z"/><path class="cls-9" d="M96.83,100.6H95.7l.6-4.32C97.32,97.61,96.64,99.16,96.83,100.6Z"/><path class="cls-10" d="M75.73,139.67c-.94.9-.16,2.13-.6,3.12a4.52,4.52,0,0,1-.46-3.49C75.12,138,75.5,139.1,75.73,139.67Z"/><path class="cls-11" d="M123.49,142.79c-.42-1,.33-2.21-.6-3.11.24-.57.64-1.7,1.06-.36A4.47,4.47,0,0,1,123.49,142.79Z"/></svg>