<svg id="Layer_1" data-name="Layer 1" xmlns="http://www.w3.org/2000/svg" viewBox="0 0 200 200"><defs><style>.cls-1{fill:#010101;}.cls-2{fill:#3e211f;}.cls-3{fill:#4b2825;}.cls-4{fill:#ed2024;}.cls-5{fill:#4daf4f;}.cls-6{fill:#398f43;}</style></defs><path class="cls-1" d="M109.37,35a10,10,0,0,1,4.7,2.66c3.17,3.73,3,8.35-.57,12.06a34,34,0,0,0-5.6,7.15c-.35.65-.64,1.35-1.09,2.32a29.11,29.11,0,0,1,8.52-3,37.38,37.38,0,0,1,15,.45,2.78,2.78,0,0,1,1.88,4c-.35.86-1.34,1.77-1,2.51s1.55.85,2.38,1.27a61.59,61.59,0,0,1,18.87,14.26,47.65,47.65,0,0,1,11.93,24.51c2.29,14.63-1.81,27.54-11.33,38.73s-21.61,17.63-35.63,21a72.53,72.53,0,0,1-20,2c-16-.67-30.61-5.4-43.13-15.65-9.85-8.06-16.4-18.21-18.75-30.87A16.55,16.55,0,0,0,35,115v-1.27a2.57,2.57,0,0,0,0-1.77v-2.29a1.91,1.91,0,0,0,0-1.52v-1.78c.31-1.86.3-3.75.72-5.61a49.64,49.64,0,0,1,10.1-20.66A59.2,59.2,0,0,1,64.53,65a61.57,61.57,0,0,1,8.19-3.72,1,1,0,0,0,.77-1.44c-.41-1.55-.61-3.15-.87-4.74-.49-2.93,1.57-4.79,4.43-3.94a55.79,55.79,0,0,1,12.06,4.93c.88.5,1.1.27,1.33-.6a37.08,37.08,0,0,1,6.77-13.78,51.59,51.59,0,0,1,5-5.06A6.38,6.38,0,0,1,105.82,35Z"/><path class="cls-2" d="M35,111.94a1.46,1.46,0,0,1,0,1.77Z"/><path class="cls-3" d="M35,108.13a1.14,1.14,0,0,1,0,1.52Z"/><path class="cls-4" d="M119.14,71.72a27.5,27.5,0,0,0,7.67-4c.37-.29.64,0,.92.08,11.19,4.88,20.39,12.09,26.47,22.85a39.88,39.88,0,0,1,5.22,18.06c.54,12-3.68,22.22-11.67,31-7.84,8.63-17.61,14.07-28.74,17.16A70.36,70.36,0,0,1,91.91,159a66,66,0,0,1-24.73-7.64c-11.47-6.33-20.36-15.07-24.6-27.78-4-12.05-2.47-23.61,4-34.42S63,71.23,74.67,66.68c.9-.35,1.28-.23,1.68.64.86,1.93.91,1.92-1,2.83S71.45,72,69.5,72.86a2.89,2.89,0,0,0-2,2.52,3.07,3.07,0,0,0,1.67,2.91,15.61,15.61,0,0,0,6.37,1.88c2.72.35,5.46.56,8.2.74a1.69,1.69,0,0,1,1.57,1A36,36,0,0,0,92.85,92c4.4,3.82,5.25,3,8.58,0a19.67,19.67,0,0,0,5.62-9.16c.26-.86.45-1.21,1.51-1,4.61,1.06,9.25,1.46,13.87.07a21.06,21.06,0,0,0,3.16-1.27,2.48,2.48,0,0,0,1.5-2.57,2.57,2.57,0,0,0-1.82-2.31A21.57,21.57,0,0,1,119.14,71.72Z"/><path class="cls-5" d="M102.05,72.82c2.33,0,3.64-1,3.41-3.33s.91-3.71,2.78-4.83c5.25-3.16,10.93-4,17.13-3.27a16,16,0,0,1-6.75,4.6,37.44,37.44,0,0,1-5.49,1.49,2.69,2.69,0,0,0-1.39,4.73c1.73,1.72,3.59,3.33,5.49,5.07a12.69,12.69,0,0,1-4.89-.21c-1.87-.31-3.72-.76-5.56-1.22-2.35-.58-3.65.11-4.21,2.48A22.37,22.37,0,0,1,100.18,85a17,17,0,0,1-2.28,2.87c-.52.54-.88.56-1.45,0a31.82,31.82,0,0,1-5.55-7.2,26.42,26.42,0,0,1-1.64-3,3.63,3.63,0,0,0-3.64-2.23c-2.36,0-4.71-.18-7.42-.44,1.33-.79,2.39-1.38,3.42-2,2.43-1.52,2.74-2.68,1.22-5.11a31.16,31.16,0,0,1-3.61-9,6.92,6.92,0,0,1-.1-.91,40.11,40.11,0,0,1,9.59,4.69,1.38,1.38,0,0,1,.58,1.43,43,43,0,0,0-.21,5.44c0,2.34,1.12,3.36,3.48,3.29A25.4,25.4,0,0,1,102.05,72.82Z"/><path class="cls-6" d="M102.05,72.82H92.57a3.32,3.32,0,0,0,2.06-3.55,39.75,39.75,0,0,1,4.24-19.54,30.14,30.14,0,0,1,7-8.55,2.87,2.87,0,0,1,4,.15,3,3,0,0,1-.12,4.3,66.46,66.46,0,0,0-4.72,5.46A25.89,25.89,0,0,0,100,66.29c0,1,.05,2.11,0,3.16A3.06,3.06,0,0,0,102.05,72.82Z"/><path class="cls-1" d="M45.86,112.44c0-.69,0-1.2,0-1.71a2.57,2.57,0,0,1,2.62-2.65,2.64,2.64,0,0,1,2.75,2.56,60.89,60.89,0,0,0,.69,6.15,32.93,32.93,0,0,0,8.58,16.06A43.1,43.1,0,0,0,66,137.76c1.07.82,1.82,1.82,1.42,3.25-.56,2.05-2.7,2.67-4.53,1.29a44.7,44.7,0,0,1-11.7-12.84A36.44,36.44,0,0,1,45.86,112.44Z"/></svg>