<svg width="17" height="17" viewBox="0 0 17 17" fill="none" xmlns="http://www.w3.org/2000/svg">
<g clip-path="url(#clip0)">
<path d="M8.49999 1.53065C10.7697 1.53065 11.0383 1.53942 11.9348 1.58025C12.7635 1.61804 13.2136 1.75638 13.5132 1.87278C13.8829 2.00889 14.2172 2.22624 14.4917 2.5088C14.7743 2.78325 14.9916 3.11763 15.1277 3.48728C15.2441 3.7869 15.3825 4.23701 15.4202 5.06568C15.4611 5.96218 15.4698 6.23075 15.4698 8.5005C15.4698 10.7702 15.4611 11.0388 15.4202 11.9353C15.3825 12.764 15.2441 13.2141 15.1277 13.5137C14.9861 13.8802 14.7695 14.213 14.4917 14.4909C14.2139 14.7687 13.881 14.9853 13.5146 15.1269C13.2149 15.2433 12.7648 15.3816 11.9362 15.4194C11.04 15.4602 10.7711 15.469 8.50134 15.469C6.2316 15.469 5.96268 15.4602 5.06653 15.4194C4.23785 15.3816 3.78775 15.2433 3.48813 15.1269C3.11848 14.9908 2.7841 14.7734 2.50964 14.4909C2.22708 14.2164 2.00974 13.882 1.87363 13.5124C1.75722 13.2127 1.61889 12.7626 1.5811 11.934C1.54027 11.0375 1.5315 10.7689 1.5315 8.49915C1.5315 6.2294 1.54027 5.96083 1.5811 5.06433C1.61889 4.23566 1.75722 3.78555 1.87363 3.48593C2.00974 3.11628 2.22708 2.7819 2.50964 2.50745C2.7841 2.22489 3.11848 2.00754 3.48813 1.87143C3.78775 1.75503 4.23785 1.61669 5.06653 1.5789C5.96302 1.53807 6.2316 1.5293 8.50134 1.5293L8.49999 1.53065ZM8.50134 -0.00219727C6.19279 -0.00219727 5.9033 0.00758758 4.99668 0.0490888C4.09007 0.0905901 3.47261 0.235338 2.93275 0.445207C2.36543 0.658768 1.85145 0.993363 1.42656 1.42572C0.99421 1.85061 0.659615 2.36459 0.446054 2.93191C0.236186 3.47176 0.0924499 4.09057 0.0512861 4.99516C0.0101223 5.89975 0 6.1906 0 8.49915C0 10.8077 0.00978484 11.0972 0.0512861 12.0038C0.0927873 12.9104 0.236186 13.5265 0.446054 14.0664C0.659702 14.6335 0.994292 15.1472 1.42656 15.5719C1.85131 16.0045 2.36533 16.3393 2.93275 16.5528C3.47261 16.763 4.09141 16.9067 4.99601 16.9479C5.9006 16.989 6.19212 16.9991 8.50067 16.9991C10.8092 16.9991 11.0987 16.9894 12.0053 16.9479C12.9119 16.9064 13.5274 16.763 14.0672 16.5528C14.6321 16.3345 15.1451 16.0006 15.5732 15.5724C16.0014 15.1442 16.3354 14.6312 16.5536 14.0664C16.7638 13.5265 16.9075 12.9077 16.9487 12.0031C16.9899 11.0985 17 10.807 17 8.49848C17 6.18993 16.9902 5.90043 16.9487 4.99381C16.9072 4.0872 16.7638 3.47176 16.5536 2.93191C16.3402 2.36478 16.0057 1.85101 15.5734 1.42639C15.1486 0.993794 14.6346 0.658966 14.0672 0.445207C13.5274 0.235338 12.9086 0.0916023 12.004 0.0504385C11.0994 0.00927463 10.8085 -0.000847632 8.49999 -0.000847632L8.50134 -0.00219727Z" fill="#00727A"/>
<path d="M8.50003 4.1355C7.63677 4.1355 6.7929 4.39148 6.07513 4.87109C5.35735 5.35069 4.79792 6.03236 4.46756 6.82991C4.13721 7.62746 4.05077 8.50506 4.21918 9.35173C4.3876 10.1984 4.8033 10.9761 5.41371 11.5865C6.02413 12.197 6.80185 12.6127 7.64852 12.7811C8.49519 12.9495 9.37279 12.8631 10.1703 12.5327C10.9679 12.2023 11.6496 11.6429 12.1292 10.9251C12.6088 10.2074 12.8647 9.36348 12.8647 8.50022C12.8648 7.92702 12.7519 7.35943 12.5326 6.82986C12.3133 6.30029 11.9918 5.81911 11.5865 5.4138C11.1811 5.00849 10.7 4.68698 10.1704 4.46765C9.64082 4.24832 9.07323 4.13545 8.50003 4.1355ZM8.50003 11.3345C7.93948 11.3345 7.39151 11.1682 6.92542 10.8568C6.45933 10.5454 6.09606 10.1027 5.88155 9.58484C5.66703 9.06695 5.6109 8.49708 5.72026 7.94729C5.82962 7.3975 6.09955 6.89249 6.49593 6.49611C6.8923 6.09974 7.39732 5.8298 7.9471 5.72044C8.49689 5.61108 9.06676 5.66721 9.58465 5.88173C10.1025 6.09624 10.5452 6.45952 10.8566 6.9256C11.168 7.39169 11.3343 7.93966 11.3343 8.50022C11.3343 9.25191 11.0357 9.9728 10.5041 10.5043C9.97262 11.0358 9.25172 11.3345 8.50003 11.3345Z" fill="#00727A"/>
<path d="M13.0375 4.9826C13.6008 4.9826 14.0575 4.52594 14.0575 3.96261C14.0575 3.39929 13.6008 2.94263 13.0375 2.94263C12.4742 2.94263 12.0175 3.39929 12.0175 3.96261C12.0175 4.52594 12.4742 4.9826 13.0375 4.9826Z" fill="#00727A"/>
</g>
<defs>
<clipPath id="clip0">
<rect width="17" height="17" fill="white"/>
</clipPath>
</defs>
</svg>
