<svg width="14" height="17" viewBox="0 0 14 17" fill="none" xmlns="http://www.w3.org/2000/svg">
<g clip-path="url(#clip0)">
<path fill-rule="evenodd" clip-rule="evenodd" d="M7.23254 0C2.51525 0 0 2.98329 0 6.24123C0 7.75655 0.854237 9.63175 2.22102 10.2284C2.43932 10.3231 2.54373 10.2284 2.59119 10.0864C2.63864 9.94429 2.84746 9.24345 2.84746 8.92145C2.87508 8.87571 2.88968 8.82332 2.88968 8.76992C2.88968 8.71651 2.87508 8.66412 2.84746 8.61838C2.32691 7.94535 2.04333 7.11979 2.04068 6.26964C2.05727 5.65091 2.19876 5.04188 2.45667 4.47897C2.71459 3.91606 3.08363 3.41083 3.54174 2.99352C3.99985 2.5762 4.5376 2.25536 5.12284 2.05019C5.70807 1.84503 6.32877 1.75974 6.9478 1.79944C9.6339 1.79944 11.5227 3.52312 11.5227 5.99499C11.5227 8.78886 10.0325 10.7304 8.08678 10.7304C7.84361 10.7509 7.59903 10.7134 7.37326 10.6209C7.14749 10.5284 6.94703 10.3837 6.78843 10.1986C6.62984 10.0135 6.51768 9.79343 6.46122 9.55653C6.40475 9.31963 6.40562 9.07272 6.46373 8.83621C6.88453 7.72478 7.20224 6.57716 7.41288 5.4078C7.42849 5.21562 7.4022 5.02235 7.33583 4.84127C7.26946 4.66019 7.16458 4.4956 7.02839 4.35881C6.89221 4.22202 6.72795 4.11628 6.54692 4.04886C6.36588 3.98144 6.17236 3.95394 5.97966 3.96825C4.88814 3.96825 4.00542 5.03844 4.00542 6.47799C4.00024 7.00671 4.11035 7.53023 4.32814 8.01226L3.04678 13.1359C2.86574 14.3944 2.89139 15.674 3.12271 16.9242C3.12657 16.9478 3.13718 16.9697 3.15327 16.9873C3.16936 17.0049 3.19022 17.0175 3.21334 17.0235C3.23646 17.0295 3.26082 17.0287 3.28349 17.0212C3.30615 17.0136 3.32614 16.9997 3.34102 16.9811C4.0939 15.9547 4.69486 14.8256 5.12542 13.6284L5.80882 11.1755C6.09741 11.5625 6.47683 11.8728 6.91374 12.0792C7.35065 12.2856 7.83169 12.3818 8.31458 12.3593C11.6176 12.3593 14.0095 9.51811 14.0095 5.94763C13.981 2.54763 11.0386 0 7.23254 0Z" fill="#00727A"/>
</g>
<defs>
<clipPath id="clip0">
<rect width="14" height="17" fill="white"/>
</clipPath>
</defs>
</svg>
